<svg width="661" height="661" viewBox="0 0 661 661" fill="none" xmlns="http://www.w3.org/2000/svg">
<path d="M313.808 660.15V654.531H325.048V618.158H331.973V654.531H343.274V660.15H313.808Z" fill="#fff"/>
<path d="M260.261 653.2L266.83 611.719L273.669 612.802L270.796 630.947L290.415 634.055L293.288 615.91L300.128 616.994L293.56 658.475L286.72 657.392L289.536 639.606L269.917 636.497L267.101 654.284L260.261 653.2Z" fill="#fff"/>
<path d="M228.567 608.961L245.372 614.423L250.912 607.197L257.784 609.43L230.405 644.774L222.783 642.297L221.402 597.607L228.332 599.859L228.567 608.961ZM228.678 614.909L229.171 635.601L241.787 619.169L228.678 614.909Z" fill="#fff"/>
<path d="M183.942 578.776L190.106 581.918L194.402 619.343L208.651 591.369L214.815 594.511L195.705 632.024L189.542 628.883L185.219 591.512L170.996 619.431L164.833 616.29L183.942 578.776Z" fill="#fff"/>
<path d="M153.986 557.924L156.117 582.745L167.181 567.513L172.773 571.577L148.048 605.617L142.456 601.553L153.734 586.027L129.212 591.928L122.197 586.83L149.392 580.552L146.677 552.612L153.986 557.924Z" fill="#fff"/>
<path d="M126.878 533.177C128.877 535.177 130.333 537.319 131.247 539.604C132.132 541.918 132.389 544.175 132.018 546.374C131.647 548.574 130.604 550.53 128.891 552.244L123.665 547.017C124.836 545.617 125.393 544.06 125.335 542.347C125.25 540.604 124.393 538.919 122.765 537.291C121.08 535.605 119.367 534.691 117.625 534.549C115.854 534.434 114.327 535.02 113.041 536.305C112.042 537.305 111.528 538.419 111.499 539.647C111.442 540.847 111.685 542.061 112.228 543.289C112.742 544.489 113.57 546.06 114.712 548.002C116.14 550.459 117.211 552.558 117.925 554.301C118.582 556.043 118.781 557.9 118.524 559.871C118.267 561.842 117.211 563.755 115.355 565.612C113.641 567.326 111.714 568.397 109.572 568.826C107.43 569.254 105.245 569.04 103.018 568.183C100.79 567.326 98.6628 565.883 96.6352 563.855C93.7509 560.97 92.1231 557.885 91.7519 554.601C91.3235 551.316 92.2659 548.317 94.5791 545.603L99.9764 551.002C98.9769 552.173 98.5628 553.615 98.7342 555.329C98.9055 557.043 99.7622 558.671 101.304 560.213C102.704 561.613 104.203 562.399 105.802 562.57C107.401 562.741 108.872 562.156 110.214 560.813C111.128 559.899 111.614 558.871 111.671 557.728C111.671 556.586 111.414 555.415 110.9 554.215C110.386 553.015 109.586 551.473 108.501 549.588C107.073 547.074 106.016 544.932 105.331 543.161C104.617 541.361 104.403 539.462 104.688 537.462C104.917 535.463 105.973 533.52 107.858 531.635C109.372 530.121 111.214 529.107 113.384 528.593C115.526 528.05 117.796 528.15 120.195 528.893C122.537 529.635 124.764 531.064 126.878 533.177Z" fill="#fff"/>
<path d="M30.1545 467.599L35.1828 465.037L43.2824 480.937L54.3663 475.288L48.0514 462.891L53.0797 460.329L59.3946 472.725L75.8312 464.348L78.9613 470.493L41.3842 489.644L30.1545 467.599Z" fill="#fff"/>
<path d="M57.1707 418.84C58.3785 422.558 58.6266 426.27 57.9152 429.976C57.1528 433.656 55.5112 436.923 52.9904 439.776C50.4187 442.604 47.1694 444.656 43.2425 445.932C39.3156 447.208 35.5004 447.452 31.7968 446.664C28.0807 445.838 24.8522 444.154 22.1111 441.612C19.3192 439.044 17.3193 435.902 16.1116 432.184C14.8913 428.427 14.6624 424.709 15.4248 421.029C16.1363 417.323 17.7586 414.062 20.2918 411.247C22.825 408.432 26.0551 406.386 29.982 405.11C33.9088 403.834 37.7433 403.584 41.4855 404.359C45.1891 405.147 48.4369 406.825 51.2288 409.393C53.9698 411.934 55.9505 415.083 57.1707 418.84ZM51.4536 420.698C50.5945 418.053 49.232 415.889 47.3661 414.208C45.4618 412.538 43.2064 411.491 40.5999 411.067C37.9425 410.617 35.1316 410.874 32.1671 411.837C29.2027 412.801 26.797 414.239 24.9501 416.153C23.0907 418.029 21.9004 420.195 21.3793 422.653C20.8582 425.111 21.0273 427.662 21.8864 430.307C22.7455 432.952 24.108 435.115 25.9739 436.797C27.8397 438.479 30.0821 439.551 32.701 440.014C35.3075 440.438 38.0929 440.168 41.0573 439.205C44.0218 438.241 46.4529 436.816 48.3508 434.928C50.1978 433.014 51.401 430.822 51.9606 428.351C52.4817 425.894 52.3127 423.342 51.4536 420.698Z" fill="#fff"/>
<path d="M44.9103 366.409L29.7432 378.601L30.5654 383.793L47.2447 381.151L48.3221 387.955L6.624 394.561L4.35576 380.236C3.8517 377.053 3.98638 374.279 4.75979 371.913C5.5269 369.507 6.76535 367.618 8.47515 366.246C10.1786 364.834 12.1903 363.944 14.5102 363.577C17.2301 363.146 19.836 363.549 22.3279 364.786C24.7736 365.989 26.6547 368.159 27.9713 371.295L43.6249 358.291L44.9103 366.409ZM25.1057 384.658L23.9149 377.138C23.5116 374.591 22.5692 372.783 21.0876 371.712C19.5998 370.602 17.7759 370.218 15.616 370.56C13.4561 370.902 11.877 371.805 10.8787 373.268C9.84034 374.738 9.52595 376.766 9.9355 379.352L11.1263 386.873L25.1057 384.658Z" fill="#fff"/>
<path d="M9.12931 249.915L48.8805 268.816L47.6613 276.515L14.7229 280.23L44.8165 294.48L43.6668 302.13L0.046875 307.272L1.19045 300.05L36.5098 296.836L4.02576 282.145L5.23549 274.505L40.3843 271.202L7.97628 257.196L9.12931 249.915Z" fill="#fff"/>
<path d="M51.758 228.839L46.323 245.57L53.5894 251.11L51.3669 257.951L15.8245 230.573L18.2899 222.983L63.1333 221.73L60.8921 228.629L51.758 228.839ZM45.7897 228.933L25.0265 229.368L41.55 241.984L45.7897 228.933Z" fill="#fff"/>
<path d="M43.7197 166.074L48.748 168.637L43.6685 178.608L76.2173 195.196L73.0873 201.341L40.5385 184.752L35.4316 194.778L30.4033 192.215L43.7197 166.074Z" fill="#fff"/>
<path d="M67.8853 165.805C64.5497 163.381 62.1148 160.439 60.5806 156.98C59.0702 153.488 58.5397 149.884 58.9893 146.17C59.4298 142.399 60.8004 138.93 63.101 135.763C65.7336 132.139 68.9691 129.576 72.8074 128.075C76.6368 126.518 80.649 126.291 84.8442 127.394L79.9703 134.104C77.5313 133.678 75.3011 133.928 73.2797 134.854C71.2583 135.78 69.5005 137.271 68.0063 139.328C66.3698 141.581 65.418 143.957 65.1511 146.457C64.8841 148.957 65.3313 151.403 66.4928 153.793C67.678 156.151 69.5297 158.245 72.0477 160.075C74.5658 161.905 77.1289 163.019 79.7372 163.418C82.3692 163.784 84.8488 163.466 87.176 162.463C89.4705 161.437 91.436 159.797 93.0725 157.544C94.5667 155.487 95.4416 153.354 95.697 151.145C95.9525 148.936 95.5011 146.737 94.3429 144.548L99.2168 137.838C101.562 141.488 102.586 145.375 102.288 149.499C102.015 153.591 100.561 157.449 97.9288 161.073C95.6045 164.273 92.7459 166.661 89.3532 168.236C85.9278 169.788 82.3214 170.385 78.5341 170.027C74.7705 169.637 71.2209 168.229 67.8853 165.805Z" fill="#fff"/>
<path d="M109.883 83.9704L139.654 113.749L134.771 118.633L121.749 105.608L107.741 119.619L120.764 132.644L115.88 137.528L86.1091 107.75L90.9925 102.866L103.758 115.634L117.765 101.623L105 88.8549L109.883 83.9704Z" fill="#fff"/>
<path d="M139.012 61.2536L163.738 95.2934L158.146 99.3572L133.42 65.3174L139.012 61.2536Z" fill="#fff"/>
<path d="M214.829 65.7834L208.666 68.9247L175.871 50.4027L190.12 78.3763L183.957 81.5176L164.847 44.0039L171.011 40.8626L203.778 59.3307L189.556 31.4111L195.72 28.2698L214.829 65.7834Z" fill="#fff"/>
<path d="M242.89 24.2477C241.203 22.5923 239.274 21.5667 237.102 21.1707C234.918 20.7363 232.614 20.9133 230.188 21.7015C227.532 22.5649 225.357 23.9285 223.664 25.7924C221.971 27.6563 220.883 29.8745 220.399 32.4472C219.954 35.0074 220.198 37.7249 221.132 40.5996C222.066 43.4744 223.471 45.8357 225.348 47.6835C227.252 49.4804 229.436 50.6352 231.901 51.1477C234.366 51.6603 236.926 51.485 239.583 50.6216C243.163 49.458 245.746 47.5168 247.331 44.7979C248.917 42.079 249.406 38.9326 248.798 35.3585L233.726 40.257L232.026 35.0249L254.144 27.8368L255.806 32.9539C256.391 36.1962 256.202 39.4147 255.24 42.6092C254.315 45.7912 252.665 48.6372 250.288 51.1471C247.937 53.6062 245.01 55.405 241.506 56.5436C237.733 57.7698 234.008 58.0272 230.329 57.3158C226.638 56.5661 223.364 54.9392 220.507 52.435C217.689 49.9183 215.645 46.7052 214.375 42.7955C213.105 38.8858 212.871 35.0846 213.672 31.3918C214.511 27.6865 216.21 24.4646 218.768 21.7263C221.352 18.9371 224.511 16.9357 228.246 15.722C232.519 14.3332 236.654 14.1549 240.649 15.187C244.671 16.1683 248.055 18.3314 250.802 21.6765L242.89 24.2477Z" fill="#fff"/>
<path d="M346.284 0.150391V5.76956H335.044V42.1431H328.118V5.76956H316.818V0.150391H346.284Z" fill="#fff"/>
<path d="M399.832 7.10353L393.263 48.585L386.423 47.5014L389.297 29.357L369.677 26.2489L366.804 44.3934L359.965 43.3098L366.533 1.82832L373.373 2.91188L370.556 20.6982L390.176 23.8063L392.992 6.01998L399.832 7.10353Z" fill="#fff"/>
<path d="M431.526 51.3423L414.722 45.8808L409.182 53.1067L402.31 50.8733L429.688 15.5299L437.311 18.0073L438.691 62.6972L431.762 60.445L431.526 51.3423ZM431.415 45.3947L430.922 24.7029L418.306 41.1343L431.415 45.3947Z" fill="#fff"/>
<path d="M476.15 81.5253L469.987 78.384L465.691 40.959L451.441 68.9325L445.278 65.7912L464.387 28.2775L470.551 31.4189L474.874 68.79L489.096 40.8704L495.26 44.0117L476.15 81.5253Z" fill="#fff"/>
<path d="M506.108 102.377L503.977 77.5555L492.912 92.7877L487.32 88.7238L512.046 54.684L517.638 58.7479L506.36 74.2739L530.882 68.3727L537.897 73.4704L510.702 79.7492L513.417 107.688L506.108 102.377Z" fill="#fff"/>
<path d="M533.216 127.125C531.217 125.126 529.761 122.984 528.847 120.698C527.962 118.385 527.705 116.128 528.076 113.929C528.447 111.729 529.489 109.773 531.203 108.059L536.429 113.286C535.258 114.686 534.701 116.242 534.758 117.956C534.844 119.699 535.701 121.384 537.328 123.012C539.013 124.697 540.727 125.611 542.469 125.754C544.239 125.868 545.767 125.283 547.052 123.998C548.052 122.998 548.566 121.884 548.594 120.656C548.652 119.456 548.409 118.242 547.866 117.014C547.352 115.814 546.524 114.243 545.382 112.3C543.954 109.844 542.883 107.745 542.169 106.002C541.512 104.26 541.312 102.403 541.569 100.432C541.826 98.4611 542.883 96.5473 544.739 94.6906C546.453 92.9768 548.38 91.9056 550.522 91.4772C552.664 91.0487 554.849 91.2629 557.076 92.1199C559.303 92.9768 561.431 94.4193 563.459 96.4473C566.343 99.3323 567.971 102.417 568.342 105.702C568.77 108.987 567.828 111.986 565.515 114.7L560.117 109.301C561.117 108.13 561.531 106.688 561.36 104.974C561.188 103.26 560.332 101.632 558.789 100.089C557.39 98.6896 555.891 97.9041 554.292 97.7327C552.692 97.5613 551.222 98.1469 549.88 99.4894C548.966 100.403 548.48 101.432 548.423 102.574C548.423 103.717 548.68 104.888 549.194 106.088C549.708 107.287 550.508 108.83 551.593 110.715C553.021 113.229 554.078 115.371 554.763 117.142C555.477 118.942 555.691 120.841 555.405 122.841C555.177 124.84 554.12 126.783 552.236 128.668C550.722 130.182 548.88 131.196 546.71 131.71C544.568 132.253 542.298 132.153 539.899 131.41C537.557 130.667 535.329 129.239 533.216 127.125Z" fill="#fff"/>
<path d="M629.939 192.703L624.911 195.265L616.811 179.365L605.727 185.014L612.042 197.411L607.014 199.973L600.699 187.576L584.263 195.953L581.133 189.809L618.71 170.658L629.939 192.703Z" fill="#fff"/>
<path d="M602.921 241.463C601.713 237.745 601.465 234.033 602.177 230.327C602.939 226.647 604.581 223.38 607.101 220.527C609.673 217.699 612.922 215.647 616.849 214.371C620.776 213.095 624.591 212.851 628.295 213.639C632.011 214.465 635.24 216.149 637.981 218.691C640.773 221.258 642.773 224.401 643.98 228.119C645.201 231.875 645.429 235.594 644.667 239.274C643.956 242.98 642.333 246.241 639.8 249.056C637.267 251.871 634.037 253.916 630.11 255.193C626.183 256.469 622.348 256.719 618.606 255.944C614.903 255.156 611.655 253.478 608.863 250.91C606.122 248.369 604.141 245.22 602.921 241.463ZM608.638 239.605C609.497 242.25 610.86 244.413 612.726 246.095C614.63 247.765 616.885 248.812 619.492 249.236C622.149 249.686 624.96 249.429 627.925 248.466C630.889 247.502 633.295 246.064 635.142 244.15C637.001 242.274 638.191 240.107 638.712 237.65C639.234 235.192 639.065 232.641 638.205 229.996C637.346 227.351 635.984 225.188 634.118 223.506C632.252 221.824 630.01 220.752 627.391 220.289C624.784 219.865 621.999 220.135 619.034 221.098C616.07 222.061 613.639 223.487 611.741 225.375C609.894 227.289 608.691 229.481 608.131 231.951C607.61 234.409 607.779 236.96 608.638 239.605Z" fill="#fff"/>
<path d="M615.184 293.894L630.351 281.702L629.528 276.509L612.849 279.152L611.772 272.348L653.47 265.742L655.738 280.066C656.242 283.25 656.107 286.024 655.334 288.39C654.567 290.796 653.328 292.685 651.619 294.057C649.915 295.469 647.903 296.358 645.583 296.726C642.864 297.157 640.258 296.754 637.766 295.517C635.32 294.314 633.439 292.144 632.122 289.008L616.469 302.011L615.184 293.894ZM634.988 275.645L636.179 283.165C636.582 285.712 637.525 287.52 639.006 288.591C640.494 289.701 642.318 290.085 644.478 289.743C646.638 289.401 648.217 288.498 649.215 287.034C650.253 285.565 650.568 283.537 650.158 280.95L648.967 273.43L634.988 275.645Z" fill="#fff"/>
<path d="M650.964 410.388L611.213 391.487L612.432 383.788L645.371 380.073L615.277 365.822L616.427 358.173L660.047 353.03L658.903 360.252L623.584 363.467L656.068 378.158L654.858 385.798L619.709 389.101L652.117 403.107L650.964 410.388Z" fill="#fff"/>
<path d="M608.332 431.462L613.767 414.731L606.5 409.191L608.723 402.349L644.265 429.728L641.8 437.318L596.956 438.571L599.198 431.672L608.332 431.462ZM614.3 431.368L635.063 430.933L618.54 418.316L614.3 431.368Z" fill="#fff"/>
<path d="M616.374 494.229L611.346 491.666L616.425 481.695L583.876 465.107L587.006 458.962L619.555 475.55L624.662 465.525L629.69 468.088L616.374 494.229Z" fill="#fff"/>
<path d="M592.208 494.498C595.544 496.922 597.979 499.864 599.513 503.324C601.024 506.816 601.554 510.419 601.104 514.134C600.664 517.904 599.293 521.373 596.993 524.541C594.36 528.165 591.125 530.728 587.286 532.229C583.457 533.786 579.445 534.013 575.25 532.91L580.123 526.2C582.562 526.626 584.793 526.375 586.814 525.45C588.835 524.524 590.593 523.033 592.088 520.976C593.724 518.723 594.676 516.346 594.943 513.846C595.21 511.346 594.762 508.901 593.601 506.511C592.416 504.153 590.564 502.059 588.046 500.229C585.528 498.399 582.965 497.285 580.357 496.886C577.725 496.52 575.245 496.838 572.918 497.841C570.623 498.867 568.658 500.507 567.021 502.76C565.527 504.817 564.652 506.95 564.397 509.159C564.141 511.368 564.593 513.567 565.751 515.755L560.877 522.465C558.532 518.815 557.508 514.928 557.805 510.804C558.079 506.713 559.532 502.855 562.165 499.231C564.489 496.031 567.348 493.643 570.741 492.068C574.166 490.516 577.772 489.919 581.56 490.277C585.323 490.667 588.873 492.074 592.208 494.498Z" fill="#fff"/>
<path d="M550.21 576.331L520.438 546.553L525.322 541.669L538.344 554.694L552.351 540.683L539.329 527.658L544.212 522.773L573.984 552.552L569.1 557.436L556.335 544.668L542.328 558.679L555.093 571.447L550.21 576.331Z" fill="#fff"/>
<path d="M521.081 599.048L496.356 565.008L501.948 560.945L526.673 594.984L521.081 599.048Z" fill="#fff"/>
<path d="M445.262 594.518L451.426 591.377L484.221 609.899L469.971 581.926L476.135 578.784L495.245 616.298L489.081 619.439L456.313 600.971L470.536 628.891L464.372 632.032L445.262 594.518Z" fill="#fff"/>
<path d="M417.203 636.054C418.89 637.709 420.82 638.735 422.991 639.131C425.175 639.565 427.48 639.389 429.906 638.6C432.562 637.737 434.737 636.373 436.43 634.509C438.123 632.646 439.211 630.427 439.695 627.855C440.14 625.294 439.896 622.577 438.962 619.702C438.028 616.827 436.623 614.466 434.745 612.618C432.842 610.821 430.658 609.667 428.193 609.154C425.728 608.641 423.168 608.817 420.511 609.68C416.931 610.844 414.348 612.785 412.762 615.504C411.177 618.223 410.688 621.369 411.296 624.943L426.368 620.045L428.068 625.277L405.95 632.465L404.288 627.348C403.703 624.106 403.891 620.887 404.854 617.693C405.778 614.511 407.429 611.665 409.806 609.155C412.157 606.696 415.084 604.897 418.587 603.758C422.36 602.532 426.086 602.275 429.765 602.986C433.456 603.736 436.73 605.363 439.586 607.867C442.404 610.383 444.448 613.597 445.718 617.506C446.988 621.416 447.223 625.217 446.422 628.91C445.583 632.615 443.884 635.837 441.326 638.576C438.742 641.365 435.582 643.366 431.848 644.58C427.575 645.969 423.44 646.147 419.444 645.115C415.423 644.134 412.038 641.97 409.292 638.625L417.203 636.054Z" fill="#fff"/>
</svg>
