<svg width="24" height="24" viewBox="0 0 24 24" fill="none" xmlns="http://www.w3.org/2000/svg">
<path fill-rule="evenodd" clip-rule="evenodd" d="M4.28874 9.80469C4.28874 5.63235 7.67108 2.25 11.8434 2.25H12.1559C16.3283 2.25 19.7106 5.63235 19.7106 9.80469V15.318L20.7195 17.2746C21.0667 17.948 20.5779 18.75 19.8203 18.75H15.9651C15.7026 20.6272 13.9812 22 11.9997 22C10.0182 22 8.29674 20.6272 8.03426 18.75H4.17908C3.42149 18.75 2.93267 17.948 3.27986 17.2746L4.28874 15.318V9.80469ZM9.5628 18.75C9.81076 19.7211 10.7653 20.5 11.9997 20.5C13.234 20.5 14.1886 19.7211 14.4365 18.75H9.5628ZM11.8434 3.75C8.49951 3.75 5.78874 6.46078 5.78874 9.80469V15.5C5.78874 15.6196 5.76014 15.7374 5.70534 15.8437L4.98022 17.25H19.0191L18.294 15.8437C18.2392 15.7374 18.2106 15.6196 18.2106 15.5V9.80469C18.2106 6.46077 15.4998 3.75 12.1559 3.75H11.8434Z" fill="#1E1E1E"/>
</svg>
