<svg width="16" height="16" viewBox="0 0 16 16" fill="none" xmlns="http://www.w3.org/2000/svg">
<path d="M2 2L14 14" stroke="#B2B2B2" stroke-width="1.6" stroke-linecap="round" stroke-linejoin="round"/>
<path fill-rule="evenodd" clip-rule="evenodd" d="M7.01435 6.14551C6.83217 6.24234 6.66365 6.36634 6.5151 6.51489C6.12127 6.90872 5.90002 7.44286 5.90002 7.99981C5.90002 8.55677 6.12127 9.09091 6.5151 9.48474C6.90893 9.87856 7.44307 10.0998 8.00002 10.0998C8.55698 10.0998 9.09112 9.87856 9.48495 9.48474C9.6335 9.33619 9.7575 9.16767 9.85433 8.98549L8.8995 8.03066C8.8917 8.25815 8.79792 8.47471 8.63642 8.63621C8.46764 8.80499 8.23872 8.89981 8.00002 8.89981C7.76133 8.89981 7.53241 8.80499 7.36363 8.63621C7.19485 8.46743 7.10002 8.23851 7.10002 7.99981C7.10002 7.76112 7.19485 7.5322 7.36363 7.36342C7.52513 7.20192 7.74168 7.10814 7.96918 7.10034L7.01435 6.14551Z" fill="#B2B2B2"/>
<path fill-rule="evenodd" clip-rule="evenodd" d="M4.55201 3.68363C3.11403 4.4815 1.86794 5.805 0.81121 7.59331C0.662865 7.84435 0.662865 8.15623 0.81121 8.40728C2.63751 11.4979 5.02943 13.2003 7.99995 13.2003C9.68111 13.2003 11.177 12.655 12.4898 11.6214L11.3489 10.4805C10.3174 11.2434 9.20046 11.6003 7.99995 11.6003C5.88255 11.6003 4.02498 10.49 2.43836 8.00029C3.4344 6.43734 4.53722 5.41799 5.74407 4.87568L4.55201 3.68363ZM12.5233 9.39214C12.8813 8.98768 13.2274 8.52457 13.5615 8.00029C11.9749 5.51061 10.1174 4.40029 7.99995 4.40029C7.84818 4.40029 7.69773 4.406 7.54863 4.41751L6.16431 3.03318C6.74954 2.87896 7.36138 2.80029 7.99995 2.80029C10.9705 2.80029 13.3624 4.50265 15.1887 7.59331C15.337 7.84435 15.337 8.15623 15.1887 8.40728C14.7156 9.2079 14.2045 9.91535 13.6553 10.5242L12.5233 9.39214Z" fill="#B2B2B2"/>
</svg>
