<svg width="82" height="82" viewBox="0 0 82 82" fill="none" xmlns="http://www.w3.org/2000/svg">
<path d="M0 40C0 21.1438 0 11.7157 5.85786 5.85786C11.7157 0 21.1438 0 40 0H42C60.8562 0 70.2843 0 76.1421 5.85786C82 11.7157 82 21.1438 82 40V42C82 60.8562 82 70.2843 76.1421 76.1421C70.2843 82 60.8562 82 42 82H40C21.1438 82 11.7157 82 5.85786 76.1421C0 70.2843 0 60.8562 0 42V40Z" fill="white" fill-opacity="0.2"/>
<path d="M53.25 28.75L28.75 53.25M35.75 31.375C35.75 33.7912 33.7912 35.75 31.375 35.75C28.9588 35.75 27 33.7912 27 31.375C27 28.9588 28.9588 27 31.375 27C33.7912 27 35.75 28.9588 35.75 31.375ZM55 50.625C55 53.0412 53.0412 55 50.625 55C48.2088 55 46.25 53.0412 46.25 50.625C46.25 48.2088 48.2088 46.25 50.625 46.25C53.0412 46.25 55 48.2088 55 50.625Z" stroke="#F3F3F3" stroke-width="2.6" stroke-linecap="round" stroke-linejoin="round"/>
</svg>
