<svg width="82" height="82" viewBox="0 0 82 82" fill="none" xmlns="http://www.w3.org/2000/svg">
<path d="M0 40C0 21.1438 0 11.7157 5.85786 5.85786C11.7157 0 21.1438 0 40 0H42C60.8562 0 70.2843 0 76.1421 5.85786C82 11.7157 82 21.1438 82 40V42C82 60.8562 82 70.2843 76.1421 76.1421C70.2843 82 60.8562 82 42 82H40C21.1438 82 11.7157 82 5.85786 76.1421C0 70.2843 0 60.8562 0 42V40Z" fill="white" fill-opacity="0.2"/>
<path d="M55 41V58.5H27V41M41 58.5V32.25M41 32.25H33.125C31.9647 32.25 30.8519 31.7891 30.0314 30.9686C29.2109 30.1481 28.75 29.0353 28.75 27.875C28.75 26.7147 29.2109 25.6019 30.0314 24.7814C30.8519 23.9609 31.9647 23.5 33.125 23.5C39.25 23.5 41 32.25 41 32.25ZM41 32.25H48.875C50.0353 32.25 51.1481 31.7891 51.9686 30.9686C52.7891 30.1481 53.25 29.0353 53.25 27.875C53.25 26.7147 52.7891 25.6019 51.9686 24.7814C51.1481 23.9609 50.0353 23.5 48.875 23.5C42.75 23.5 41 32.25 41 32.25ZM23.5 32.25H58.5V41H23.5V32.25Z" stroke="#F3F3F3" stroke-width="2" stroke-linecap="round" stroke-linejoin="round"/>
</svg>
