<svg width="32" height="32" viewBox="0 0 32 32" fill="none" xmlns="http://www.w3.org/2000/svg">
<path d="M0 16C0 7.16344 7.16344 0 16 0C24.8366 0 32 7.16344 32 16C32 24.8366 24.8366 32 16 32C7.16344 32 0 24.8366 0 16Z" fill="#F5F5F5"/>
<path d="M22 18V20.6667C22 21.0203 21.8595 21.3594 21.6095 21.6095C21.3594 21.8595 21.0203 22 20.6667 22H11.3333C10.9797 22 10.6406 21.8595 10.3905 21.6095C10.1405 21.3594 10 21.0203 10 20.6667V18M19.3333 13.3333L16 10M16 10L12.6667 13.3333M16 10V18" stroke="#1E1E1E" stroke-width="1.6" stroke-linecap="round" stroke-linejoin="round"/>
</svg>
