<svg width="82" height="82" viewBox="0 0 82 82" fill="none" xmlns="http://www.w3.org/2000/svg">
<path d="M0 40C0 21.1438 0 11.7157 5.85786 5.85786C11.7157 0 21.1438 0 40 0H42C60.8562 0 70.2843 0 76.1421 5.85786C82 11.7157 82 21.1438 82 40V42C82 60.8562 82 70.2843 76.1421 76.1421C70.2843 82 60.8562 82 42 82H40C21.1438 82 11.7157 82 5.85786 76.1421C0 70.2843 0 60.8562 0 42V40Z" fill="white" fill-opacity="0.2"/>
<g clip-path="url(#clip0_1360_64392)">
<path d="M35.75 51.5V28.75L56.75 25.25V48M35.75 51.5C35.75 54.3995 33.3995 56.75 30.5 56.75C27.6005 56.75 25.25 54.3995 25.25 51.5C25.25 48.6005 27.6005 46.25 30.5 46.25C33.3995 46.25 35.75 48.6005 35.75 51.5ZM56.75 48C56.75 50.8995 54.3995 53.25 51.5 53.25C48.6005 53.25 46.25 50.8995 46.25 48C46.25 45.1005 48.6005 42.75 51.5 42.75C54.3995 42.75 56.75 45.1005 56.75 48Z" stroke="#F3F3F3" stroke-width="2.5" stroke-linecap="round" stroke-linejoin="round"/>
</g>
<defs>
<clipPath id="clip0_1360_64392">
<rect width="42" height="42" fill="white" transform="translate(20 20)"/>
</clipPath>
</defs>
</svg>
