<svg width="16" height="16" viewBox="0 0 16 16" fill="none" xmlns="http://www.w3.org/2000/svg">
<g id="eye_on">
<path id="Vector" d="M6.5 8C6.5 8.39782 6.65804 8.77936 6.93934 9.06066C7.22064 9.34196 7.60218 9.5 8 9.5C8.39782 9.5 8.77936 9.34196 9.06066 9.06066C9.34196 8.77936 9.5 8.39782 9.5 8C9.5 7.60218 9.34196 7.22064 9.06066 6.93934C8.77936 6.65804 8.39782 6.5 8 6.5C7.60218 6.5 7.22064 6.65804 6.93934 6.93934C6.65804 7.22064 6.5 7.60218 6.5 8Z" stroke="#B2B2B2" stroke-width="1.2" stroke-linecap="round" stroke-linejoin="round"/>
<path id="Vector_2" d="M14.5 8.0001C12.7667 10.9334 10.6 12.4001 8 12.4001C5.4 12.4001 3.23333 10.9334 1.5 8.0001C3.23333 5.06676 5.4 3.6001 8 3.6001C10.6 3.6001 12.7667 5.06676 14.5 8.0001Z" stroke="#B2B2B2" stroke-width="1.6" stroke-linecap="round" stroke-linejoin="round"/>
</g>
</svg>
