<svg width="20" height="20" viewBox="0 0 20 20" fill="none" xmlns="http://www.w3.org/2000/svg">
<path d="M9.9845 5.56438V16.2239" stroke="white" stroke-width="1.25" stroke-linecap="round"/>
<path d="M17.4691 5.56438V16.2239" stroke="white" stroke-width="1.25" stroke-linecap="round"/>
<path d="M2.50085 5.59041V16.25" stroke="white" stroke-width="1.25" stroke-linecap="round"/>
<path d="M17.4689 16.224C17.4689 16.224 16.5884 14.4096 13.5066 14.4096C10.4248 14.4096 9.9845 16.224 9.9845 16.224" stroke="white" stroke-width="1.25" stroke-linecap="round"/>
<path d="M2.50012 16.224C2.50012 16.224 3.38063 14.4096 6.46244 14.4096C9.54424 14.4096 9.9845 16.224 9.9845 16.224" stroke="white" stroke-width="1.25" stroke-linecap="round"/>
<path d="M17.4689 5.5644C17.4689 5.5644 16.5884 3.75 13.5066 3.75C10.4248 3.75 9.9845 5.5644 9.9845 5.5644" stroke="white" stroke-width="1.25" stroke-linecap="round"/>
<path d="M2.50012 5.5644C2.50012 5.5644 3.38063 3.75 6.46244 3.75C9.54424 3.75 9.9845 5.5644 9.9845 5.5644" stroke="white" stroke-width="1.25" stroke-linecap="round"/>
</svg>
