<svg width="38" height="38" viewBox="0 0 38 38" fill="none" xmlns="http://www.w3.org/2000/svg">
<rect width="38" height="38" rx="12" fill="#F3F7FB"/>
<g opacity="0.4">
<path d="M27.2483 7.32422H10.7283C9.49116 7.32422 8.48828 8.3271 8.48828 9.56422V28.6675C8.48828 29.9011 9.77338 30.714 10.888 30.1855L13.3865 29.0009C13.9798 28.7196 14.6666 28.7128 15.2654 28.9822L18.0691 30.2439C18.6536 30.507 19.3229 30.507 19.9075 30.2439L22.7112 28.9822C23.31 28.7128 23.9968 28.7196 24.5901 29.0009L27.0885 30.1855C28.2032 30.714 29.4883 29.9011 29.4883 28.6675V9.56422C29.4883 8.3271 28.4854 7.32422 27.2483 7.32422Z" fill="url(#paint0_linear_1009_34304)"/>
<path d="M27.2483 7.32422H10.7283C9.49116 7.32422 8.48828 8.3271 8.48828 9.56422V28.6675C8.48828 29.9011 9.77338 30.714 10.888 30.1855L13.3865 29.0009C13.9798 28.7196 14.6666 28.7128 15.2654 28.9822L18.0691 30.2439C18.6536 30.507 19.3229 30.507 19.9075 30.2439L22.7112 28.9822C23.31 28.7128 23.9968 28.7196 24.5901 29.0009L27.0885 30.1855C28.2032 30.714 29.4883 29.9011 29.4883 28.6675V9.56422C29.4883 8.3271 28.4854 7.32422 27.2483 7.32422Z" fill="url(#paint1_linear_1009_34304)"/>
</g>
<path fill-rule="evenodd" clip-rule="evenodd" d="M13.4453 13.1572C13.4453 12.674 13.8371 12.2822 14.3203 12.2822H18.987C19.4702 12.2822 19.862 12.674 19.862 13.1572C19.862 13.6405 19.4702 14.0322 18.987 14.0322H14.3203C13.8371 14.0322 13.4453 13.6405 13.4453 13.1572ZM13.4453 17.8239C13.4453 17.3406 13.8371 16.9489 14.3203 16.9489H23.6536C24.1369 16.9489 24.5286 17.3406 24.5286 17.8239C24.5286 18.3071 24.1369 18.6989 23.6536 18.6989H14.3203C13.8371 18.6989 13.4453 18.3071 13.4453 17.8239ZM13.4453 22.4906C13.4453 22.0073 13.8371 21.6156 14.3203 21.6156H23.6536C24.1369 21.6156 24.5286 22.0073 24.5286 22.4906C24.5286 22.9738 24.1369 23.3656 23.6536 23.3656H14.3203C13.8371 23.3656 13.4453 22.9738 13.4453 22.4906Z" fill="url(#paint2_linear_1009_34304)"/>
<path fill-rule="evenodd" clip-rule="evenodd" d="M13.4453 13.1572C13.4453 12.674 13.8371 12.2822 14.3203 12.2822H18.987C19.4702 12.2822 19.862 12.674 19.862 13.1572C19.862 13.6405 19.4702 14.0322 18.987 14.0322H14.3203C13.8371 14.0322 13.4453 13.6405 13.4453 13.1572ZM13.4453 17.8239C13.4453 17.3406 13.8371 16.9489 14.3203 16.9489H23.6536C24.1369 16.9489 24.5286 17.3406 24.5286 17.8239C24.5286 18.3071 24.1369 18.6989 23.6536 18.6989H14.3203C13.8371 18.6989 13.4453 18.3071 13.4453 17.8239ZM13.4453 22.4906C13.4453 22.0073 13.8371 21.6156 14.3203 21.6156H23.6536C24.1369 21.6156 24.5286 22.0073 24.5286 22.4906C24.5286 22.9738 24.1369 23.3656 23.6536 23.3656H14.3203C13.8371 23.3656 13.4453 22.9738 13.4453 22.4906Z" fill="url(#paint3_linear_1009_34304)"/>
<defs>
<linearGradient id="paint0_linear_1009_34304" x1="18.9883" y1="7.32422" x2="18.9883" y2="31.3233" gradientUnits="userSpaceOnUse">
<stop stop-color="#C3E1FF"/>
<stop offset="0.884883" stop-color="#3E9EFF"/>
</linearGradient>
<linearGradient id="paint1_linear_1009_34304" x1="7.01679" y1="7.63711" x2="25.1264" y2="26.8447" gradientUnits="userSpaceOnUse">
<stop stop-color="#469FF8" stop-opacity="0.1"/>
<stop offset="0.822692" stop-color="#75A1F9"/>
</linearGradient>
<linearGradient id="paint2_linear_1009_34304" x1="18.987" y1="12.2822" x2="18.987" y2="23.3656" gradientUnits="userSpaceOnUse">
<stop stop-color="#C3E1FF"/>
<stop offset="0.884883" stop-color="#3E9EFF"/>
</linearGradient>
<linearGradient id="paint3_linear_1009_34304" x1="12.6687" y1="12.4267" x2="20.894" y2="22.3966" gradientUnits="userSpaceOnUse">
<stop stop-color="#469FF8" stop-opacity="0.1"/>
<stop offset="0.822692" stop-color="#75A1F9"/>
</linearGradient>
</defs>
</svg>
