<svg width="24" height="24" viewBox="0 0 24 24" fill="none" xmlns="http://www.w3.org/2000/svg">
<path fill-rule="evenodd" clip-rule="evenodd" d="M7 4.03571C7 2.91143 7.91139 2 9.03571 2H19.9643C21.0886 2 22 2.91142 22 4.03571V14.9643C22 16.0886 21.0886 17 19.9643 17H9.03571C7.9114 17 7 16.0886 7 14.9643V4.03571Z" fill="#5A5A5A"/>
<path fill-rule="evenodd" clip-rule="evenodd" d="M2.45312 8.5865C2.45312 7.46221 3.36452 6.55078 4.48884 6.55078H15.4174C16.5417 6.55078 17.4531 7.4622 17.4531 8.5865V19.5151C17.4531 20.6394 16.5417 21.5508 15.4174 21.5508H4.48884C3.36452 21.5508 2.45312 20.6394 2.45312 19.5151V8.5865Z" fill="black" fill-opacity="0.3"/>
</svg>
