<svg width="16" height="16" viewBox="0 0 16 16" fill="none" xmlns="http://www.w3.org/2000/svg">
<path d="M6.45463 11.2434C6.21118 11.4879 5.90861 11.6653 5.57632 11.7583L3.18802 12.4268C2.81256 12.5318 2.46662 12.1858 2.57179 11.8104L3.24033 9.42369C3.33344 9.0913 3.51099 8.78866 3.75571 8.54522L10.2513 2.08372C10.3289 2.00435 10.4216 1.94129 10.5239 1.89824C10.6263 1.85519 10.7362 1.83301 10.8473 1.83301C10.9583 1.83301 11.0683 1.85519 11.1706 1.89824C11.2729 1.94129 11.3657 2.00435 11.4433 2.08372L12.9188 3.56696C12.9969 3.64442 13.0589 3.73659 13.1013 3.83812C13.1436 3.93966 13.1654 4.04858 13.1654 4.15858C13.1654 4.26858 13.1436 4.3775 13.1013 4.47905C13.0589 4.58059 12.9969 4.67275 12.9188 4.75021L6.45463 11.2434Z" stroke="#757575" stroke-linecap="round" stroke-linejoin="round"/>
<path d="M2.5 14.167H13.5" stroke="#757575" stroke-linecap="round"/>
</svg>
