<svg width="25" height="24" viewBox="0 0 25 24" fill="none" xmlns="http://www.w3.org/2000/svg">
<rect x="3.3301" y="2.8301" width="18.34" height="18.34" rx="5.27" fill="white" stroke="white" stroke-width="1.46"/>
<path fill-rule="evenodd" clip-rule="evenodd" d="M7.5498 7.7998C7.5498 7.38559 7.88559 7.0498 8.2998 7.0498H16.6998C17.114 7.0498 17.4498 7.38559 17.4498 7.7998C17.4498 8.21402 17.114 8.5498 16.6998 8.5498H8.2998C7.88559 8.5498 7.5498 8.21402 7.5498 7.7998ZM7.5498 11.9998C7.5498 11.5856 7.88559 11.2498 8.2998 11.2498H16.6998C17.114 11.2498 17.4498 11.5856 17.4498 11.9998C17.4498 12.414 17.114 12.7498 16.6998 12.7498H8.2998C7.88559 12.7498 7.5498 12.414 7.5498 11.9998ZM7.5498 16.1998C7.5498 15.7856 7.88559 15.4498 8.2998 15.4498H14.2998C14.714 15.4498 15.0498 15.7856 15.0498 16.1998C15.0498 16.614 14.714 16.9498 14.2998 16.9498H8.2998C7.88559 16.9498 7.5498 16.614 7.5498 16.1998Z" fill="#1E1E1E"/>
</svg>
