<svg width="20" height="20" viewBox="0 0 20 20" fill="none" xmlns="http://www.w3.org/2000/svg">
<path d="M13.6549 5.52928C13.1054 4.29776 12.1286 3.28565 10.8896 2.66407C9.65052 2.04248 8.22529 1.84955 6.85481 2.1179C5.48434 2.38624 4.25269 3.0994 3.3681 4.1368C2.48351 5.1742 2.00024 6.4722 2 7.81135V12.6065C2 12.8763 2.11194 13.135 2.3112 13.3258C2.51046 13.5165 2.78071 13.6237 3.0625 13.6237H7.36335C7.83713 14.6595 8.61568 15.5408 9.60394 16.1601C10.5922 16.7794 11.7474 17.1098 12.9286 17.1111H17.9375C18.2193 17.1111 18.4895 17.0039 18.6888 16.8132C18.8881 16.6224 19 16.3637 19 16.0939V11.2988C18.9997 9.87783 18.4557 8.50623 17.4709 7.44317C16.486 6.38012 15.1285 5.69926 13.6549 5.52928ZM3.21429 7.81135C3.21429 6.89169 3.49915 5.99269 4.03286 5.22802C4.56657 4.46335 5.32515 3.86737 6.21268 3.51543C7.10021 3.16349 8.07682 3.07141 9.01901 3.25082C9.9612 3.43024 10.8267 3.8731 11.5059 4.52339C12.1852 5.17369 12.6478 6.00222 12.8352 6.90421C13.0227 7.8062 12.9265 8.74113 12.5588 9.59079C12.1912 10.4404 11.5687 11.1667 10.7699 11.6776C9.97116 12.1885 9.03208 12.4612 8.07143 12.4612H3.21429V7.81135ZM17.7857 15.9486H12.9286C12.0697 15.9477 11.2264 15.7292 10.4842 15.3154C9.74205 14.9016 9.12747 14.3072 8.70286 13.5925C9.53443 13.5099 10.3392 13.2636 11.0666 12.8691C11.794 12.4746 12.4284 11.9404 12.93 11.3001C13.4316 10.6598 13.7894 9.92708 13.9812 9.14806C14.1729 8.36903 14.1944 7.56047 14.0442 6.77312C15.1092 7.01373 16.0581 7.59155 16.7372 8.41296C17.4163 9.23436 17.7857 10.2512 17.7857 11.2988V15.9486Z" fill="white"/>
</svg>
