<svg width="25" height="24" viewBox="0 0 25 24" fill="none" xmlns="http://www.w3.org/2000/svg">
<g clip-path="url(#clip0_1249_40653)">
<path d="M15.5 8C16.121 8.46574 16.625 9.06966 16.9721 9.76393C17.3193 10.4582 17.5 11.2238 17.5 12C17.5 12.7762 17.3193 13.5418 16.9721 14.2361C16.625 14.9303 16.121 15.5343 15.5 16" stroke="#F3F3F3" stroke-width="1.5" stroke-linecap="round" stroke-linejoin="round"/>
<path d="M18.1992 5C19.2432 5.84365 20.0852 6.91013 20.6637 8.12132C21.2421 9.33252 21.5424 10.6578 21.5424 12C21.5424 13.3422 21.2421 14.6675 20.6637 15.8787C20.0852 17.0899 19.2432 18.1563 18.1992 19" stroke="#F3F3F3" stroke-width="1.5" stroke-linecap="round" stroke-linejoin="round"/>
<path d="M6.874 15.0002H4.62467C4.32639 15.0002 4.04032 14.8949 3.82941 14.7073C3.61849 14.5198 3.5 14.2654 3.5 14.0002V10.0002C3.5 9.735 3.61849 9.48065 3.82941 9.29311C4.04032 9.10557 4.32639 9.00022 4.62467 9.00022H6.874L10.8103 4.50022C10.9086 4.33045 11.072 4.19754 11.2709 4.12551C11.4697 4.05348 11.6911 4.04708 11.8948 4.10746C12.0985 4.16784 12.2712 4.29103 12.3817 4.45476C12.4922 4.61849 12.5332 4.81196 12.4973 5.00022V19.0002C12.5332 19.1885 12.4922 19.3819 12.3817 19.5457C12.2712 19.7094 12.0985 19.8326 11.8948 19.893C11.6911 19.9534 11.4697 19.947 11.2709 19.8749C11.072 19.8029 10.9086 19.67 10.8103 19.5002L6.874 15.0002Z" stroke="#F3F3F3" stroke-width="1.5" stroke-linecap="round" stroke-linejoin="round"/>
</g>
<defs>
<clipPath id="clip0_1249_40653">
<rect width="24" height="24" fill="white" transform="translate(0.5)"/>
</clipPath>
</defs>
</svg>
