<svg width="25" height="24" viewBox="0 0 25 24" fill="none" xmlns="http://www.w3.org/2000/svg">
<path d="M3 6.49902C3 4.28988 4.79086 2.49902 7 2.49902H18C20.2091 2.49902 22 4.28988 22 6.49902V17.499C22 19.7082 20.2091 21.499 18 21.499H7C4.79086 21.499 3 19.7082 3 17.499V6.49902Z" stroke="#B3B3B3" stroke-width="1.5"/>
<path d="M3 14.4989L6.3055 11.1935C7.18783 10.3112 8.65379 10.4434 9.36406 11.4693L11.2664 14.217C11.9311 15.1771 13.2735 15.3659 14.1773 14.6265L16.5992 12.645C17.3944 11.9944 18.5533 12.0522 19.2798 12.7787L22 15.4989" stroke="#B3B3B3" stroke-width="1.5"/>
<circle cx="17" cy="7.49902" r="1.5" fill="#B3B3B3"/>
</svg>
