<svg width="24" height="24" viewBox="0 0 24 24" fill="none" xmlns="http://www.w3.org/2000/svg">
<rect x="2" y="7" width="20" height="7" fill="#FEE500"/>
<path d="M10.3012 11.0705L9.64257 9.01126L8.92838 11.0705H10.3012Z" fill="#191919"/>
<path fill-rule="evenodd" clip-rule="evenodd" d="M0.5 10.4713C0.5 5.46085 5.6487 1.3999 12 1.3999C18.3513 1.3999 23.5 5.46085 23.5 10.4713C23.5 15.4817 18.3513 19.5424 12 19.5424C11.2706 19.5424 10.557 19.4885 9.86517 19.3858L9.61674 19.5544C8.24406 20.4859 5.62588 22.2628 5.4398 22.3865C5.18704 22.5536 4.80246 22.5616 4.95859 21.9376C5.08454 21.4353 5.71515 19.085 5.95576 18.1895C2.6813 16.5904 0.5 13.7323 0.5 10.4713ZM5.16091 8.80123H3.97721C3.28318 8.80123 3.28101 7.66975 3.97569 7.66867C3.97569 7.66867 6.74656 7.69142 7.57565 7.69142C8.31137 7.69228 8.31072 8.84674 7.57478 8.84674C6.79347 8.8463 6.39716 8.84349 6.39716 8.84349L6.39173 12.8093C6.39325 13.3603 5.16351 13.353 5.16199 12.8013C5.16829 12.0455 5.16091 8.80123 5.16091 8.80123ZM8.30075 12.9837C8.0482 13.5629 6.95918 13.0905 7.21195 12.5109C7.38541 12.1125 7.73236 11.1662 8.07331 10.2361C8.3324 9.52939 8.58803 8.83209 8.76145 8.39187C8.77589 8.3552 8.78977 8.32031 8.80302 8.28735C8.8428 8.18846 8.87703 8.1069 8.9045 8.04653C8.95899 7.92682 9.04832 7.84108 9.15672 7.78395C9.27767 7.72018 9.42236 7.69204 9.56893 7.69204C9.58991 7.69204 9.611 7.69262 9.632 7.69375C9.9471 7.71075 10.2578 7.85274 10.3486 8.04653C10.4282 8.21619 10.6435 8.77622 10.8981 9.45364C11.1174 10.0369 11.3659 10.7072 11.582 11.2904C11.7231 11.6711 11.8507 12.0154 11.9471 12.2731C11.9831 12.3693 12.0148 12.4535 12.0413 12.5233C12.1019 12.6826 12.0708 12.8291 11.9876 12.9481C11.772 13.2564 11.2062 13.3794 10.9755 13.0585C10.9523 13.0264 10.9326 12.9897 10.9169 12.9484C10.7488 12.506 10.7044 12.3105 10.6965 12.2243C10.6943 12.1998 10.695 12.1842 10.6967 12.1742C10.6988 12.1617 10.7024 12.1581 10.7035 12.1573H8.53788L8.30075 12.9837ZM12.4559 8.2357C12.4581 9.26297 12.4618 12.5736 12.4618 12.5736C12.4618 12.5736 12.3667 13.2316 12.9322 13.2316C13.216 13.2316 13.6735 13.2301 14.1291 13.2286C14.5812 13.2271 15.0316 13.2255 15.3087 13.2255C15.8648 13.2255 15.8618 12.0447 15.3056 12.0447C14.7491 12.0447 13.7341 12.0388 13.7341 12.0388C13.7341 12.0388 13.7389 8.97652 13.7371 8.23267C13.7363 7.87299 13.4168 7.69314 13.0972 7.69314C12.776 7.69314 12.4553 7.87407 12.4559 8.2357ZM16.0034 11.9737C16.0103 10.6601 16.0222 8.40108 16.0132 8.07227C16.0067 7.82396 16.3261 7.69547 16.6384 7.69547C16.93 7.69547 17.2154 7.80771 17.2215 8.03955C17.238 8.65058 17.2221 9.75563 17.2221 9.75563C17.2221 9.75563 18.9839 7.99578 19.2347 7.74769C19.4933 7.49071 20.2942 8.29588 20.0355 8.55221C19.5921 8.99185 18.4675 10.2057 18.4675 10.2057L20.1246 12.3835C20.4397 12.7984 19.4473 13.5488 19.1315 13.1336L17.5713 11.0091L17.2143 11.2945C17.2143 11.2945 17.2141 12.344 17.2143 12.897C17.2145 13.3733 15.9993 13.3743 15.9991 12.8979C15.999 12.8164 16.0009 12.4598 16.0034 11.9737Z" fill="#191919"/>
</svg>
