<svg width="112" height="36" viewBox="0 0 112 36" fill="none" xmlns="http://www.w3.org/2000/svg">
<path d="M0 18C0 8.05888 8.05887 0 18 0H94C103.941 0 112 8.05888 112 18C112 27.9411 103.941 36 94 36H18C8.05887 36 0 27.9411 0 18Z" fill="white"/>
<path d="M26.0264 18.64C26.003 16.0975 28.1616 14.8605 28.2603 14.803C27.0378 13.0651 25.1429 12.8276 24.477 12.8087C22.8855 12.6454 21.3418 13.7372 20.5311 13.7372C19.7042 13.7372 18.4558 12.8245 17.1103 12.8513C15.3788 12.8773 13.759 13.8547 12.8707 15.3725C11.0373 18.4672 12.4046 23.015 14.1612 25.5165C15.0398 26.7416 16.0666 28.1095 17.4104 28.0613C18.7252 28.0085 19.2163 27.2441 20.803 27.2441C22.375 27.2441 22.8362 28.0613 24.2068 28.0306C25.6178 28.0085 26.5062 26.7999 27.3541 25.5638C28.3695 24.1596 28.7773 22.7768 28.7935 22.7058C28.7603 22.6947 26.0531 21.6873 26.0264 18.64Z" fill="black"/>
<path d="M23.4373 11.1632C24.1445 10.3009 24.6283 9.12789 24.494 7.9375C23.4705 7.98168 22.1905 8.62775 21.4535 9.47105C20.8013 10.2142 20.2188 11.4322 20.3693 12.5776C21.519 12.6612 22.6995 12.012 23.4373 11.1632Z" fill="black"/>
<path d="M37.8594 23H36.2598L39.8145 13.1016H41.5508L45.1191 23H43.5195L42.6172 20.3887H38.7617L37.8594 23ZM39.1992 19.1309H42.1797L40.7168 14.9062H40.6484L39.1992 19.1309ZM46.2539 25.7891V15.5762H47.6758V16.7793H47.7988C48.0586 16.3145 48.5645 15.4805 49.9316 15.4805C51.7227 15.4805 53.0488 16.8887 53.0488 19.3086C53.0488 21.7012 51.75 23.1504 49.9453 23.1504C48.5918 23.1504 48.0586 22.3301 47.7988 21.8379H47.7168V25.7891H46.2539ZM47.6895 19.2812C47.6895 20.8398 48.373 21.9062 49.6172 21.9062C50.9023 21.9062 51.5723 20.7715 51.5723 19.2812C51.5723 17.8184 50.916 16.7246 49.6172 16.7246C48.3594 16.7246 47.6895 17.7363 47.6895 19.2812ZM54.498 25.7891V15.5762H55.9199V16.7793H56.043C56.3027 16.3145 56.8086 15.4805 58.1758 15.4805C59.9668 15.4805 61.293 16.8887 61.293 19.3086C61.293 21.7012 59.9941 23.1504 58.1895 23.1504C56.8359 23.1504 56.3027 22.3301 56.043 21.8379H55.9609V25.7891H54.498ZM55.9336 19.2812C55.9336 20.8398 56.6172 21.9062 57.8613 21.9062C59.1465 21.9062 59.8164 20.7715 59.8164 19.2812C59.8164 17.8184 59.1602 16.7246 57.8613 16.7246C56.6035 16.7246 55.9336 17.7363 55.9336 19.2812ZM71.6699 15.7129C71.5742 14.7969 70.7676 14.2637 69.6328 14.2637C68.416 14.2637 67.6504 14.8789 67.6504 15.7266C67.6504 16.6699 68.6758 17.0254 69.4551 17.2168L70.4121 17.4766C71.6836 17.7773 73.2559 18.4746 73.2695 20.2656C73.2559 21.9336 71.9297 23.1641 69.5918 23.1641C67.377 23.1641 65.9824 22.0566 65.8867 20.252H67.3906C67.4863 21.332 68.4297 21.8516 69.5918 21.8516C70.8496 21.8516 71.7656 21.209 71.7793 20.2383C71.7656 19.377 70.959 19.0215 69.9062 18.748L68.7305 18.4336C67.1445 17.9961 66.1465 17.1895 66.1465 15.8086C66.1465 14.0996 67.6777 12.9648 69.6738 12.9648C71.6836 12.9648 73.0918 14.1133 73.1328 15.7129H71.6699ZM78.2324 15.5762V16.7383H76.7148V20.8125C76.7148 21.6465 77.1387 21.7969 77.6035 21.8105C77.8086 21.8105 78.1367 21.7832 78.3418 21.7695V23.041C78.1367 23.0684 77.8223 23.0957 77.4258 23.0957C76.2773 23.0957 75.252 22.4668 75.2656 21.1133V16.7383H74.1719V15.5762H75.2656V13.7988H76.7148V15.5762H78.2324ZM82.7168 23.1504C80.6113 23.1504 79.2441 21.6191 79.2441 19.3223C79.2441 17.0117 80.6113 15.4805 82.7168 15.4805C84.8086 15.4805 86.1758 17.0117 86.1758 19.3223C86.1758 21.6191 84.8086 23.1504 82.7168 23.1504ZM82.7168 21.9336C84.0566 21.9336 84.6992 20.7441 84.6992 19.3223C84.6992 17.9004 84.0566 16.6836 82.7168 16.6836C81.3496 16.6836 80.707 17.9004 80.707 19.3223C80.707 20.7441 81.3496 21.9336 82.7168 21.9336ZM87.6113 23V15.5762H89.0195V16.752H89.1016C89.375 15.959 90.1133 15.4668 90.9883 15.4668C91.166 15.4668 91.4531 15.4805 91.6035 15.4941V16.8887C91.4805 16.8613 91.1387 16.8066 90.8379 16.8066C89.8262 16.8066 89.0742 17.5039 89.0742 18.4746V23H87.6113ZM95.6504 23.1504C93.4629 23.1504 92.123 21.6465 92.123 19.3359C92.123 17.0527 93.4902 15.4805 95.5547 15.4805C97.25 15.4805 98.8496 16.5332 98.8496 19.2129V19.7324H93.5723C93.6133 21.1406 94.4404 21.9473 95.6641 21.9473C96.498 21.9473 97.0312 21.5918 97.2773 21.1406H98.7539C98.4258 22.3438 97.2773 23.1504 95.6504 23.1504ZM93.5859 18.6387H97.4141C97.4141 17.5039 96.6895 16.6836 95.5684 16.6836C94.3994 16.6836 93.6406 17.5859 93.5859 18.6387Z" fill="#1E1E1E"/>
</svg>
