<svg width="124" height="36" viewBox="0 0 124 36" fill="none" xmlns="http://www.w3.org/2000/svg">
<path d="M0 18C0 8.05888 8.05887 0 18 0H106C115.941 0 124 8.05888 124 18C124 27.9411 115.941 36 106 36H18C8.05887 36 0 27.9411 0 18Z" fill="white"/>
<path d="M11.3747 8.31758C11.1374 8.56015 11 8.93782 11 9.42691V26.8726C11 27.3617 11.1374 27.7393 11.3747 27.9819L11.4333 28.0352L21.4461 18.2631V18.0324L11.4333 8.26039L11.3747 8.31758Z" fill="url(#paint0_linear_1432_79442)"/>
<path d="M24.7831 21.5234L21.4492 18.2645V18.0337L24.7872 14.7747L24.8619 14.8171L28.8149 17.0131C29.9431 17.6363 29.9431 18.6618 28.8149 19.289L24.8619 21.481L24.7831 21.5234Z" fill="url(#paint1_linear_1432_79442)"/>
<path d="M24.8591 21.4899L21.4464 18.1579L11.375 27.992C11.7497 28.3766 12.3607 28.423 13.0556 28.0384L24.8591 21.4899Z" fill="url(#paint2_linear_1432_79442)"/>
<path d="M24.8591 14.8126L13.0556 8.26405C12.3607 7.88343 11.7497 7.92977 11.375 8.31434L21.4464 18.1445L24.8591 14.8126Z" fill="url(#paint3_linear_1432_79442)"/>
<path d="M43.6973 16.2324C43.3281 15.0635 42.4326 14.3389 41.127 14.3457C39.459 14.3389 38.1807 15.6514 38.1738 18.0508C38.1807 20.4434 39.4453 21.7627 41.1953 21.7559C42.7744 21.7627 43.8203 20.7578 43.8477 19.1719H41.4141V17.9277H45.3105V19.0488C45.3105 21.5576 43.5879 23.1367 41.1816 23.1367C38.502 23.1367 36.6836 21.1885 36.6836 18.0508C36.6836 14.8926 38.5566 12.9648 41.1133 12.9648C43.2529 12.9648 44.9072 14.2979 45.2422 16.2324H43.6973ZM50.0684 23.1504C47.9629 23.1504 46.5889 21.6191 46.5957 19.3223C46.5889 17.0117 47.9629 15.4805 50.0684 15.4805C52.1602 15.4805 53.5273 17.0117 53.5273 19.3223C53.5273 21.6191 52.1602 23.1504 50.0684 23.1504ZM48.0586 19.3223C48.0586 20.7373 48.708 21.9336 50.0684 21.9336C51.4082 21.9336 52.0508 20.7373 52.0508 19.3223C52.0508 17.9004 51.4082 16.6904 50.0684 16.6836C48.708 16.6904 48.0586 17.9004 48.0586 19.3223ZM58.1074 23.1504C56.002 23.1504 54.6279 21.6191 54.6348 19.3223C54.6279 17.0117 56.002 15.4805 58.1074 15.4805C60.1992 15.4805 61.5664 17.0117 61.5664 19.3223C61.5664 21.6191 60.1992 23.1504 58.1074 23.1504ZM56.0977 19.3223C56.0977 20.7373 56.7471 21.9336 58.1074 21.9336C59.4473 21.9336 60.0898 20.7373 60.0898 19.3223C60.0898 17.9004 59.4473 16.6904 58.1074 16.6836C56.7471 16.6904 56.0977 17.9004 56.0977 19.3223ZM66.1191 25.9395C64.2461 25.9395 63.0088 25.1123 62.8789 23.7246H64.3691C64.5127 24.4287 65.1689 24.7705 66.1328 24.7637C67.2949 24.7705 68.0264 24.2646 68.0332 23.1094V21.6465H67.9375C67.6777 22.125 67.1445 22.8906 65.7773 22.8906C64.0273 22.8906 62.6738 21.585 62.6738 19.2129C62.6738 16.8408 64.0068 15.4805 65.791 15.4805C67.1719 15.4805 67.6777 16.3145 67.9512 16.7793H68.0469V15.5762H69.4688V23.1641C69.4756 25.0713 68.0332 25.9395 66.1191 25.9395ZM64.1641 19.2402C64.1572 20.6963 64.8271 21.6807 66.1055 21.6875C67.3496 21.6807 68.0469 20.7715 68.0469 19.2402C68.0469 17.7363 67.3633 16.7178 66.1055 16.7246C64.8135 16.7178 64.1572 17.8184 64.1641 19.2402ZM72.709 13.1016V23H71.2461V13.1016H72.709ZM77.6855 23.1504C75.498 23.1504 74.1514 21.6396 74.1582 19.3359C74.1514 17.0527 75.5186 15.4805 77.5898 15.4805C79.2783 15.4805 80.8848 16.5264 80.8848 19.2129V19.7324H75.6074C75.6484 21.1475 76.4824 21.9473 77.6992 21.9473C78.5264 21.9473 79.0664 21.5918 79.3125 21.1406H80.7891C80.4609 22.3438 79.3193 23.1504 77.6855 23.1504ZM75.6143 18.6387H79.4492C79.4492 17.5107 78.7178 16.6768 77.6035 16.6836C76.4346 16.6768 75.6758 17.5928 75.6143 18.6387ZM85.875 23V13.1016H89.4023C91.7061 13.1016 92.834 14.4824 92.834 16.3145C92.834 18.1396 91.6992 19.5273 89.4023 19.5273H87.3789V23H85.875ZM87.3789 18.2422H89.252C90.708 18.249 91.3164 17.4287 91.3164 16.3145C91.3164 15.1934 90.708 14.3936 89.252 14.3867H87.3789V18.2422ZM95.7598 13.1016V23H94.2969V13.1016H95.7598ZM97.1953 20.9082C97.1885 19.2129 98.6309 18.7754 99.9707 18.6797C100.463 18.6523 101.577 18.5908 101.919 18.5771L101.912 17.9824C101.919 17.1416 101.399 16.6562 100.408 16.6562C99.5469 16.6562 99.0273 17.0527 98.877 17.5996H97.4277C97.5576 16.3691 98.7061 15.4805 100.463 15.4805C101.646 15.4805 103.368 15.9111 103.375 18.0645V23H101.953V21.9883H101.898C101.611 22.542 100.928 23.1641 99.6973 23.1641C98.2891 23.1641 97.1885 22.3574 97.1953 20.9082ZM98.6172 20.9219C98.6172 21.6328 99.2051 21.9951 100.025 22.002C101.215 21.9951 101.926 21.2021 101.926 20.3203L101.919 19.6436C101.584 19.6641 100.524 19.7393 100.176 19.7598C99.2188 19.8281 98.6172 20.1904 98.6172 20.9219ZM105.768 25.7891C105.467 25.7822 105.173 25.7754 104.988 25.748V24.5312C105.152 24.5449 105.439 24.5518 105.645 24.5586C106.096 24.5518 106.472 24.5244 106.82 23.5879L106.998 23.0957L104.277 15.5762H105.836L107.709 21.332H107.791L109.664 15.5762H111.236L108.174 23.9844C107.743 25.1602 106.991 25.7822 105.768 25.7891Z" fill="#1E1E1E"/>
<defs>
<linearGradient id="paint0_linear_1432_79442" x1="20.5571" y1="27.0542" x2="7.32191" y2="13.4984" gradientUnits="userSpaceOnUse">
<stop stop-color="#00A0FF"/>
<stop offset="0.0066" stop-color="#00A1FF"/>
<stop offset="0.2601" stop-color="#00BEFF"/>
<stop offset="0.5122" stop-color="#00D2FF"/>
<stop offset="0.7604" stop-color="#00DFFF"/>
<stop offset="1" stop-color="#00E3FF"/>
</linearGradient>
<linearGradient id="paint1_linear_1432_79442" x1="30.2839" y1="18.148" x2="10.7334" y2="18.148" gradientUnits="userSpaceOnUse">
<stop stop-color="#FFE000"/>
<stop offset="0.4087" stop-color="#FFBD00"/>
<stop offset="0.7754" stop-color="#FFA500"/>
<stop offset="1" stop-color="#FF9C00"/>
</linearGradient>
<linearGradient id="paint2_linear_1432_79442" x1="23.0034" y1="16.3466" x2="5.0554" y2="-2.03628" gradientUnits="userSpaceOnUse">
<stop stop-color="#FF3A44"/>
<stop offset="1" stop-color="#C31162"/>
</linearGradient>
<linearGradient id="paint3_linear_1432_79442" x1="8.83981" y1="33.7828" x2="16.8544" y2="25.574" gradientUnits="userSpaceOnUse">
<stop stop-color="#32A071"/>
<stop offset="0.0685" stop-color="#2DA771"/>
<stop offset="0.4762" stop-color="#15CF74"/>
<stop offset="0.8009" stop-color="#06E775"/>
<stop offset="1" stop-color="#00F076"/>
</linearGradient>
</defs>
</svg>
