<svg width="44" height="44" viewBox="0 0 44 44" fill="none" xmlns="http://www.w3.org/2000/svg">
<path d="M0 22C0 9.84974 9.84974 0 22 0C34.1503 0 44 9.84974 44 22C44 34.1503 34.1503 44 22 44C9.84974 44 0 34.1503 0 22Z" fill="#F3F7FB"/>
<path d="M10.8125 29.7482C10.8125 29.0982 11.3394 28.5713 11.9895 28.5713H13.4355C14.0856 28.5713 14.6125 29.0982 14.6125 29.7482V34.3243C14.6125 34.9744 14.0856 35.5013 13.4355 35.5013H11.9895C11.3394 35.5013 10.8125 34.9744 10.8125 34.3243V29.7482Z" fill="url(#paint0_linear_1399_35779)"/>
<path d="M22.8125 26.2834C22.8125 25.6334 23.3394 25.1064 23.9895 25.1064H25.4355C26.0856 25.1064 26.6125 25.6334 26.6125 26.2834V34.3245C26.6125 34.9745 26.0856 35.5015 25.4355 35.5015H23.9895C23.3394 35.5015 22.8125 34.9745 22.8125 34.3245V26.2834Z" fill="url(#paint1_linear_1399_35779)"/>
<path d="M16.8125 24.3928C16.8125 23.7428 17.3394 23.2158 17.9895 23.2158H19.4355C20.0856 23.2158 20.6125 23.7428 20.6125 24.3928V34.3239C20.6125 34.9739 20.0856 35.5008 19.4355 35.5008H17.9895C17.3394 35.5008 16.8125 34.9739 16.8125 34.3239V24.3928Z" fill="url(#paint2_linear_1399_35779)"/>
<path d="M28.8125 20.9279C28.8125 20.2779 29.3394 19.751 29.9895 19.751H31.4355C32.0856 19.751 32.6125 20.2779 32.6125 20.9279V34.324C32.6125 34.974 32.0856 35.501 31.4355 35.501H29.9895C29.3394 35.501 28.8125 34.974 28.8125 34.324V20.9279Z" fill="url(#paint3_linear_1399_35779)"/>
<path d="M30.4766 10.6689L25.1347 16.1564C24.6273 16.6776 23.8771 16.8822 23.1753 16.6908L19.8871 15.794C19.219 15.6118 18.5042 15.7882 17.9975 16.2602L11.4766 22.3356" stroke="url(#paint4_linear_1399_35779)" stroke-width="2.5" stroke-linecap="round" stroke-linejoin="round"/>
<path d="M32.7564 7.56008C33.1486 7.4123 33.5376 7.78354 33.4084 8.18217L31.1381 15.184C31.0245 15.5344 30.5838 15.6458 30.3173 15.3915L25.6997 10.9853C25.4332 10.731 25.5239 10.2856 25.8686 10.1557L32.7564 7.56008Z" fill="#EF4C3E"/>
<defs>
<linearGradient id="paint0_linear_1399_35779" x1="12.7125" y1="28.5713" x2="12.7125" y2="35.5013" gradientUnits="userSpaceOnUse">
<stop stop-color="#5DABFF"/>
<stop offset="1" stop-color="#4299F5"/>
</linearGradient>
<linearGradient id="paint1_linear_1399_35779" x1="24.7125" y1="25.1064" x2="24.7125" y2="35.5015" gradientUnits="userSpaceOnUse">
<stop stop-color="#5DABFF"/>
<stop offset="1" stop-color="#4299F5"/>
</linearGradient>
<linearGradient id="paint2_linear_1399_35779" x1="18.7125" y1="23.2158" x2="18.7125" y2="35.5008" gradientUnits="userSpaceOnUse">
<stop stop-color="#5DABFF"/>
<stop offset="1" stop-color="#4299F5"/>
</linearGradient>
<linearGradient id="paint3_linear_1399_35779" x1="30.7125" y1="19.751" x2="30.7125" y2="35.501" gradientUnits="userSpaceOnUse">
<stop stop-color="#5DABFF"/>
<stop offset="1" stop-color="#4299F5"/>
</linearGradient>
<linearGradient id="paint4_linear_1399_35779" x1="30.4766" y1="10.6689" x2="10.4766" y2="22.3356" gradientUnits="userSpaceOnUse">
<stop stop-color="#EF4C3E"/>
<stop offset="1" stop-color="#E93A2C"/>
</linearGradient>
</defs>
</svg>
