<svg width="20" height="16" viewBox="0 0 20 16" fill="none" xmlns="http://www.w3.org/2000/svg">
<g id="Group 1346042119">
<g id="Icon">
<path d="M1.98851 13.9749C2.97703 15 6.81802 15 10 15C13.182 15 17.023 15 18.0115 13.9749C19 12.9497 19 11.2998 19 8C19 4.70017 19 3.05025 18.0115 2.02513C17.023 1 13.182 1 10 1C6.81802 1 2.97703 1 1.98851 2.02513C1 3.05025 1 4.70017 1 8C1 11.2998 1 12.9497 1.98851 13.9749Z" fill="#ECAEBA"/>
<path d="M10 14C8.39751 14 6.68793 13.9993 5.25788 13.8756C4.54284 13.8137 3.93416 13.7239 3.46392 13.6003C2.96071 13.4682 2.75866 13.3329 2.70836 13.2807L1.26867 14.669C1.71262 15.1294 2.36139 15.3786 2.95582 15.5347C3.58322 15.6995 4.31901 15.8018 5.08554 15.8681C6.6186 16.0007 8.42051 16 10 16V14ZM0 8C0 9.62263 -0.00197732 10.9367 0.131864 11.969C0.268965 13.0265 0.564204 13.9385 1.26867 14.669L2.70836 13.2807C2.42431 12.9862 2.22529 12.5606 2.11526 11.7119C2.00198 10.8381 2 9.6772 2 8H0ZM18 8C18 9.6772 17.998 10.8381 17.8847 11.7119C17.7747 12.5606 17.5757 12.9862 17.2916 13.2807L18.7313 14.669C19.4358 13.9385 19.731 13.0265 19.8681 11.969C20.002 10.9367 20 9.62263 20 8H18ZM10 16C11.5795 16 13.3814 16.0007 14.9145 15.8681C15.681 15.8018 16.4168 15.6995 17.0442 15.5347C17.6386 15.3786 18.2874 15.1294 18.7313 14.669L17.2916 13.2807C17.2413 13.3329 17.0393 13.4682 16.5361 13.6003C16.0658 13.7239 15.4572 13.8137 14.7421 13.8756C13.3121 13.9993 11.6025 14 10 14V16ZM10 2C11.6025 2 13.3121 2.00073 14.7421 2.12442C15.4572 2.18626 16.0658 2.27615 16.5361 2.39967C17.0393 2.53184 17.2413 2.6671 17.2916 2.71926L18.7313 1.33099C18.2874 0.870594 17.6386 0.621422 17.0442 0.465284C16.4168 0.300485 15.681 0.198157 14.9145 0.13186C13.3814 -0.000734925 11.5795 0 10 0V2ZM20 8C20 6.37737 20.002 5.06335 19.8681 4.03098C19.731 2.97346 19.4358 2.06155 18.7313 1.33099L17.2916 2.71926C17.5757 3.01383 17.7747 3.43944 17.8847 4.28812C17.998 5.16195 18 6.3228 18 8H20ZM10 0C8.42051 0 6.6186 -0.000734925 5.08554 0.13186C4.31901 0.198157 3.58322 0.300485 2.95582 0.465284C2.36139 0.621422 1.71262 0.870594 1.26867 1.33099L2.70836 2.71926C2.75866 2.6671 2.96071 2.53184 3.46392 2.39967C3.93416 2.27615 4.54284 2.18626 5.25788 2.12442C6.68793 2.00073 8.39751 2 10 2V0ZM2 8C2 6.3228 2.00198 5.16195 2.11526 4.28812C2.22529 3.43944 2.42431 3.01383 2.70836 2.71926L1.26867 1.33099C0.564204 2.06155 0.268965 2.97346 0.131864 4.03098C-0.00197732 5.06335 0 6.37737 0 8H2Z" fill="#ECAEBA"/>
</g>
<path id="Icon_2" d="M12.6333 7.58675C13.1213 7.88288 13.1231 8.25541 12.6333 8.59021L8.84867 11.3695C8.37314 11.6459 8.05016 11.4827 8.01626 10.8848L8.0002 5.06771C7.9895 4.51693 8.40615 4.36132 8.80317 4.62539L12.6333 7.58675Z" fill="white" stroke="#EC4452" stroke-width="2"/>
</g>
</svg>
