<svg width="160" height="16" viewBox="0 0 160 16" fill="none" xmlns="http://www.w3.org/2000/svg">
<g id="logo_siwol2" clip-path="url(#clip0_5910_35440)">
<path id="Vector" d="M8.10707 6.43478C5.14978 5.82293 4.17081 5.45582 4.17081 4.47685C4.17081 3.63045 5.0376 3.11037 6.42447 3.11037C7.91332 3.11037 8.8413 3.80381 9.03505 5.06831L9.05545 5.20088H12.7878V5.03772C12.6144 2.13141 10.0344 0.0205078 6.64882 0.0205078C3.00829 0.0205078 0.469089 1.85607 0.469089 4.47685C0.469089 7.09763 2.04971 8.71904 5.58827 9.37169C8.29063 9.87137 9.11663 10.3405 9.11663 11.3806C9.11663 12.2474 8.18865 12.8797 6.91396 12.8797C5.12938 12.8797 3.91587 12.0231 3.74251 10.6362L3.72212 10.5036H0V10.6668C0.152964 13.8586 2.83493 16.0001 6.66922 16.0001C10.2996 16.0001 12.8387 14.0422 12.8387 11.248C12.8387 8.67825 11.2887 7.10783 8.10707 6.44498V6.43478Z" fill="#C92924"/>
<path id="Vector_2" d="M19.5998 0.387451H15.9592V15.6328H19.5998V0.387451Z" fill="white"/>
<path id="Vector_3" d="M37.1599 9.65705L34.7431 0.387451H31.0414L28.6042 9.69784L26.167 0.387451H22.2715L26.6259 15.5207L26.6564 15.6328H30.2562L32.8056 6.67936L35.3244 15.5207L35.3652 15.6328H38.9547L43.3499 0.387451H39.6176L37.1599 9.65705Z" fill="white"/>
<path id="Vector_4" d="M53.1498 0C48.3977 0 44.9509 3.3652 44.9509 7.9949C44.9509 12.6246 48.3977 15.9898 53.1498 15.9898C57.9018 15.9898 61.3486 12.6246 61.3486 7.9949C61.3486 3.3652 57.9018 0 53.1498 0ZM53.1498 12.6756C50.5086 12.6756 48.5915 10.7075 48.5915 7.9949C48.5915 5.28235 50.5086 3.31421 53.1498 3.31421C55.7909 3.31421 57.7081 5.28235 57.7081 7.9949C57.7081 10.7075 55.7909 12.6756 53.1498 12.6756Z" fill="white"/>
<path id="Vector_5" d="M68.1198 0.387451H64.4793V15.6328H75.5641V12.3696H68.1198V0.387451Z" fill="white"/>
<path id="Vector_6" d="M92.9305 8.5965L87.9235 0.458834L87.8827 0.387451H84.9866V15.6328H88.6272V7.84188L91.7884 13.0936L91.8394 13.1752H94.0217L97.2339 7.84188V15.6328H100.874V0.387451H97.9784L92.9305 8.5965Z" fill="white"/>
<path id="Vector_7" d="M114.794 8.86164C114.794 11.2173 113.519 12.6857 111.46 12.6857C109.4 12.6857 108.125 11.2173 108.125 8.86164V0.387451H104.484V8.86164C104.484 13.1344 107.289 15.9999 111.46 15.9999C115.63 15.9999 118.435 13.1344 118.435 8.86164V0.387451H114.794V8.86164Z" fill="white"/>
<path id="Vector_8" d="M129.448 6.43478C126.491 5.82293 125.512 5.45582 125.512 4.47685C125.512 3.63045 126.379 3.11037 127.765 3.11037C129.254 3.11037 130.182 3.80381 130.376 5.06831L130.396 5.20088H134.129V5.03772C133.945 2.13141 131.365 0.0205078 127.98 0.0205078C124.339 0.0205078 121.79 1.85607 121.79 4.47685C121.79 7.09763 123.37 8.71904 126.909 9.37169C129.611 9.87137 130.437 10.3405 130.437 11.3806C130.437 12.2474 129.509 12.8797 128.235 12.8797C126.45 12.8797 125.236 12.0231 125.063 10.6362L125.043 10.5036H121.321V10.6668C121.474 13.8586 124.155 16.0001 127.99 16.0001C131.62 16.0001 134.159 14.0422 134.159 11.248C134.159 8.67825 132.609 7.10783 129.428 6.44498L129.448 6.43478Z" fill="white"/>
<path id="Vector_9" d="M140.941 0.387451H137.3V15.6328H140.941V0.387451Z" fill="white"/>
<path id="Vector_10" d="M156.288 9.86106L156.268 9.98343C156.023 11.2581 154.361 12.6246 152.27 12.6246C149.629 12.6246 147.712 10.6769 147.712 7.9949C147.712 5.31294 149.629 3.3652 152.27 3.3652C154.218 3.3652 155.768 4.34417 156.125 5.81262L156.156 5.93499H159.827L159.796 5.75143C159.133 2.31485 156.084 0 152.199 0C147.488 0 144.071 3.3652 144.071 7.9949C144.071 12.6246 147.488 15.9898 152.199 15.9898C156.635 15.9898 159.5 12.9203 159.939 10.0344L159.969 9.86106H156.298H156.288Z" fill="white"/>
</g>
<defs>
<clipPath id="clip0_5910_35440">
<rect width="159.959" height="16" fill="white"/>
</clipPath>
</defs>
</svg>
