<svg width="81" height="58" viewBox="0 0 81 58" xmlns="http://www.w3.org/2000/svg">
    <path d="m57 6 11 5c-3.358-3.096-7.1-4.41-11-5M44.663 4.273l-.018-.204c-.308-.025-.617-.074-.926-.069-6.787.102-13.446 1.516-19.956 4.38-5.665 2.49-11.032 5.91-15.683 11.462-1.872 2.234-3.571 4.72-4.792 7.835-2.251 5.748-1.53 12.042 1.993 16.128 1.295 1.5 2.774 2.723 4.269 3.757 4.072 2.819 8.414 4.373 12.82 5.517 6.315 1.639 12.69 2.103 19.088 1.86 7.519-.283 14.879-2.008 22.008-5.637 3.35-1.704 6.579-3.811 9.446-6.968 1.774-1.953 3.284-4.267 4.255-7.257 1.083-3.339 1.17-6.707-.092-9.974a20.551 20.551 0 0 0-1.763-3.506c-2.088-3.32-4.636-5.673-7.434-7.448-3.494-2.219-7.113-3.876-10.831-4.998-4.965-1.5-9.96-2.21-14.996-.703-.25.075-.562.193-.763.044-.342-.255-.793-.638-.872-1.092-.075-.437.181-1.169.444-1.52.287-.382.74-.53 1.137-.683.883-.34 1.777-.62 2.666-.924m24.516 5.9c.766.567 1.47 1.065 2.159 1.6 2.85 2.208 5.413 4.965 7.406 8.758 2.713 5.162 2.982 10.988.79 16.69-1.13 2.941-2.696 5.297-4.513 7.308-3.562 3.94-7.607 6.407-11.803 8.353-6.152 2.853-12.462 4.36-18.902 4.892-6.961.575-13.874.045-20.753-1.49-5.015-1.12-9.945-2.845-14.56-6.044-1.824-1.265-3.63-2.803-5.174-4.701-4.089-5.03-4.945-12.803-2.367-19.698 1.284-3.434 3.09-6.214 5.108-8.705 4.775-5.893 10.314-9.596 16.19-12.283C30.808 1.173 39.055-.335 47.47.062c5.596.263 11.14 1.103 16.54 3.387 1.598.676 3.136 1.664 4.69 2.553.384.219.753.554 1.079.93.88 1.014.83 1.889-.132 2.865-.12.122-.257.207-.468.375" fill="#1999E2" fill-rule="evenodd"/>
</svg>
