<svg width="180" height="125" viewBox="0 0 180 125" xmlns="http://www.w3.org/2000/svg" xmlns:xlink="http://www.w3.org/1999/xlink">
    <defs>
        <path id="gmff85vfra" d="M0 0h13.363v11.634H0z"/>
        <path id="1qcthadjyc" d="M0 0h14.102v11.614H0z"/>
        <path id="fmdbrq7zse" d="M0 0h2.001v11.668H0z"/>
        <path id="ee8z4zq0bg" d="M0 0h11.702v11.634H0z"/>
        <path id="ii2hy1fsai" d="M0 0h13.466v13.466H0z"/>
    </defs>
    <g fill="none" fill-rule="evenodd">
        <path d="M0 0h180v125H0z"/>
        <path d="M54.243 93.684c.7-.587 1.096-1.153 1.187-1.696h-3.765c-.294 0-.526-.079-.695-.237-.17-.158-.254-.328-.254-.509 0-.204.084-.384.254-.542.169-.159.401-.238.695-.238h4.986c.226 0 .4.062.526.186.123.124.186.3.186.526v4.07c0 .227-.09.436-.272.628-.18.192-.418.288-.711.288-.294 0-.515-.079-.661-.237-.148-.158-.244-.384-.289-.679v-.305c-.498.43-1.12.741-1.866.933-.745.192-1.606.288-2.577.288-1.945 0-3.596-.453-4.952-1.356C44.678 93.9 44 92.463 44 90.496c0-1.967.712-3.454 2.136-4.46 1.425-1.006 3.132-1.51 5.122-1.51 1.357 0 2.595.267 3.714.797 1.12.532 1.883 1.283 2.29 2.256 0 .18-.113.35-.34.509a1.328 1.328 0 0 1-.78.237c-.361 0-.718-.102-1.068-.305a3.763 3.763 0 0 1-.9-.713c-.293-.384-.694-.678-1.203-.881-.509-.204-1.091-.306-1.747-.306-1.176 0-2.296.328-3.358.984-1.063.656-1.594 1.787-1.594 3.392 0 1.583.547 2.657 1.646 3.222 1.096.565 2.22.848 3.374.848 1.266 0 2.25-.293 2.95-.882M61.467 86.086v3.596h5.665c.52 0 .995-.175 1.425-.526.429-.35.644-.819.644-1.407 0-.407-.238-.786-.712-1.137-.475-.35-.973-.526-1.493-.526h-5.529zm5.088-1.526c1.335 0 2.437.26 3.307.78.87.52 1.306 1.278 1.306 2.273 0 .837-.238 1.498-.712 1.984-.475.487-.95.797-1.425.932a4.05 4.05 0 0 1 1.102.56c.328.237.583.718.763 1.442.09.361.147.82.17 1.373.023.555.079.956.17 1.205.09.294.056.52-.102.679-.158.158-.373.236-.644.236s-.531-.096-.78-.288c-.25-.192-.408-.492-.476-.899a21.802 21.802 0 0 0-.203-1.22 7.106 7.106 0 0 0-.271-.985c-.181-.497-.622-.842-1.323-1.034-.7-.192-1.244-.288-1.628-.288h-4.342v3.968c0 .362-.118.6-.356.713-.237.113-.457.17-.661.17-.182 0-.385-.057-.61-.17-.227-.113-.34-.351-.34-.713V84.56h7.055zM76.781 87.443c-.983.724-1.476 1.696-1.476 2.918 0 1.22.493 2.199 1.476 2.933a5.44 5.44 0 0 0 3.34 1.103c1.222 0 2.33-.368 3.325-1.103.995-.734 1.492-1.713 1.492-2.933 0-1.222-.497-2.194-1.492-2.918a5.521 5.521 0 0 0-3.324-1.085 5.497 5.497 0 0 0-3.34 1.085m8.14-1.288c1.435 1.04 2.153 2.441 2.153 4.206 0 1.763-.718 3.165-2.153 4.205a7.994 7.994 0 0 1-4.8 1.56c-1.763 0-3.37-.52-4.817-1.56-1.446-1.04-2.17-2.442-2.17-4.205 0-1.765.724-3.166 2.17-4.206 1.448-1.04 3.054-1.56 4.817-1.56 1.764 0 3.363.52 4.8 1.56M96.894 84.831c.238.182.38.363.425.543l1.933 8.717 1.934-8.717a1 1 0 0 1 .305-.492c.158-.147.372-.255.644-.322.226-.045.458.017.695.187.238.17.311.424.22.763l-2.136 9.463c-.068.294-.266.565-.593.814a1.73 1.73 0 0 1-1.07.374c-.384 0-.74-.125-1.067-.374-.328-.249-.526-.52-.594-.814l-1.527-7.055-1.525 7.055c-.069.294-.267.565-.594.814a1.73 1.73 0 0 1-1.07.374c-.384 0-.734-.125-1.05-.374-.317-.249-.52-.52-.611-.814l-2.204-9.463a.66.66 0 0 1 .068-.509c.09-.158.27-.272.543-.339.27-.09.541-.09.813 0 .272.09.453.328.543.712l1.899 8.717 1.934-8.717c.045-.18.198-.361.458-.543.26-.18.536-.27.83-.27.295 0 .56.09.797.27M106.952 95.346c0 .407-.12.645-.357.713a2.456 2.456 0 0 1-.66.102c-.182 0-.391-.068-.629-.204-.237-.136-.355-.385-.355-.747v-9.734c0-.384.118-.645.355-.78.238-.135.447-.203.628-.203.203 0 .424.068.661.203.237.135.357.396.357.78v9.87zM119.247 95.99c-.216-.112-.515-.35-.898-.712l-7.43-7.665v7.563c0 .385-.118.645-.355.78-.238.137-.458.205-.662.205-.18 0-.385-.068-.61-.204-.226-.136-.34-.396-.34-.781V85.51c0-.385.114-.639.34-.763.225-.125.43-.187.61-.187.272 0 .544.09.814.271.271.182.565.43.882.747l7.258 7.631v-7.7c0-.384.125-.638.373-.762.249-.125.453-.187.61-.187.205 0 .414.062.629.187.215.124.322.378.322.763v9.666c0 .385-.107.645-.322.78a1.176 1.176 0 0 1-.628.205c-.18 0-.379-.057-.593-.17" fill="#B72F0A"/>
        <g transform="translate(122.758 84.526)">
            <mask id="tsfetmy7hb" fill="#fff">
                <use xlink:href="#gmff85vfra"/>
            </mask>
            <path d="M10.243 9.158c.7-.587 1.096-1.153 1.187-1.696H7.665c-.294 0-.526-.078-.695-.237-.17-.158-.254-.328-.254-.508 0-.204.084-.385.254-.543.169-.158.401-.238.695-.238h4.986c.226 0 .4.062.526.186.123.125.186.3.186.527v4.07c0 .226-.09.436-.272.627-.18.192-.418.288-.711.288-.294 0-.515-.078-.661-.237-.148-.158-.244-.384-.289-.678v-.306c-.498.43-1.12.742-1.866.933-.745.192-1.606.288-2.577.288-1.945 0-3.596-.452-4.952-1.356C.678 9.374 0 7.937 0 5.97c0-1.967.712-3.453 2.136-4.46C3.561.504 5.268 0 7.258 0c1.357 0 2.595.267 3.714.797 1.12.532 1.883 1.284 2.29 2.256 0 .181-.113.35-.34.51a1.328 1.328 0 0 1-.78.236c-.361 0-.718-.102-1.068-.305a3.763 3.763 0 0 1-.9-.712c-.293-.385-.694-.68-1.203-.882-.509-.204-1.091-.306-1.747-.306-1.176 0-2.296.328-3.358.985-1.063.655-1.594 1.786-1.594 3.391 0 1.584.547 2.657 1.646 3.222 1.096.565 2.22.848 3.374.848 1.266 0 2.25-.293 2.95-.882" fill="#B72F0A" mask="url(#tsfetmy7hb)"/>
        </g>
        <g transform="translate(67.279 105.386)">
            <mask id="tonmw8hzqd" fill="#fff">
                <use xlink:href="#1qcthadjyc"/>
            </mask>
            <path d="M7.909.285c.237.182.378.363.424.543l1.933 8.717L12.2.828a1 1 0 0 1 .305-.492c.158-.147.373-.255.644-.322.226-.045.458.017.696.187.237.17.31.424.22.763l-2.137 9.463c-.068.294-.266.565-.593.814a1.73 1.73 0 0 1-1.07.374c-.384 0-.74-.125-1.067-.374-.328-.249-.526-.52-.594-.814L7.077 3.372l-1.525 7.055c-.069.294-.267.565-.594.814a1.73 1.73 0 0 1-1.069.374c-.384 0-.735-.125-1.051-.374-.317-.249-.52-.52-.611-.814L.023.964A.66.66 0 0 1 .09.455C.18.297.36.183.634.116c.27-.09.541-.09.813 0 .272.09.453.328.543.712l1.899 8.717L5.823.828c.045-.18.198-.361.458-.543.26-.18.536-.27.83-.27.295 0 .56.09.798.27" fill="#B72F0A" mask="url(#tonmw8hzqd)"/>
        </g>
        <g transform="translate(83.243 105.332)">
            <mask id="yule4vaf9f" fill="#fff">
                <use xlink:href="#fmdbrq7zse"/>
            </mask>
            <path d="M2.001 10.854c0 .406-.12.644-.356.712a2.456 2.456 0 0 1-.661.102c-.182 0-.39-.068-.629-.204C.118 11.328 0 11.08 0 10.718V.984C0 .599.118.339.355.203.593.068.802 0 .984 0c.202 0 .423.068.66.203.238.136.357.396.357.78v9.87z" fill="#B72F0A" mask="url(#yule4vaf9f)"/>
        </g>
        <path d="M98.642 105.366c.18 0 .35.091.508.272.159.18.238.36.238.542 0 .203-.08.39-.238.56-.158.17-.328.254-.508.254H94.3v9.157c0 .295-.09.51-.271.645-.182.136-.43.204-.747.204-.226 0-.44-.068-.644-.204-.203-.135-.305-.35-.305-.645v-9.157h-4.308a.723.723 0 0 1-.543-.254.804.804 0 0 1-.237-.56c0-.181.073-.362.22-.542a.69.69 0 0 1 .56-.272h10.617z" fill="#B72F0A"/>
        <g transform="translate(101.253 105.366)">
            <mask id="b8r10cctrh" fill="#fff">
                <use xlink:href="#ee8z4zq0bg"/>
            </mask>
            <path d="M9.701.984c0-.407.119-.673.356-.798.237-.124.446-.186.628-.186.204 0 .424.062.66.186.239.125.357.39.357.798v9.7c0 .362-.118.61-.356.746-.237.136-.457.204-.661.204-.182 0-.39-.068-.628-.204-.237-.136-.356-.384-.356-.745V6.444H2.002v4.24c0 .362-.12.61-.356.746-.238.136-.448.204-.628.204-.203 0-.424-.068-.662-.204-.238-.136-.356-.384-.356-.745V.984C0 .577.118.31.356.186.594.062.815 0 1.018 0c.18 0 .39.062.628.186.237.125.356.39.356.798v3.968h7.7V.984z" fill="#B72F0A" mask="url(#b8r10cctrh)"/>
        </g>
        <path d="M103.452 65.016c-.517-4.712.8-8.816 3.09-13.022 3.717-6.83 2.96-13.85-1.842-19.985-4.998-6.384-11.758-8.88-19.7-6.829-7.706 1.991-12.701 7.11-13.88 14.997-.755 5.038-1.294 10.018-3.703 14.584-.524.994-.043 1.338.828 1.43 2.967.313 3.926 2.194 4.1 4.904.116 1.798.567 3.573.828 5.364.188 1.292.91 1.914 2.191 1.916 2.32.002 4.643.068 6.958-.03 2.356-.1 3.92-1.601 4.411-4.044.155-.774.098-1.77 1.223-1.685 1.328.1 1.007 1.213.936 2.023-.268 3.04-3.09 5.73-6.294 5.874-2.532.115-5.076.084-7.61.013-2.145-.06-3.612-1.449-3.965-3.608-.338-2.074-.688-4.148-.922-6.233-.15-1.33-.74-1.988-2.062-2.337-3.308-.874-3.745-1.828-2.365-4.984 1.604-3.662 2.723-7.334 2.96-11.443.529-9.122 6.843-16.456 15.516-18.837 8.428-2.314 17.325.86 22.697 8.092 5.15 6.934 5.355 16.47.45 24.061-1.19 1.84-1.723 3.803-1.72 5.954.003 2.973.039 5.947-.012 8.919-.014.848.417 2.21-.983 2.238-1.595.032-1.06-1.437-1.105-2.33-.086-1.663-.025-3.334-.025-5.002" fill="#B72F0A"/>
        <path d="M94.891 45.083a4.529 4.529 0 0 0 3.211-1.423 4.536 4.536 0 0 0 1.217-3.47.86.86 0 0 0 .152-.176c.273-.422.483-.879.63-1.354a4.278 4.278 0 0 1 2.456 3.228c.005.033.013.066.017.098.012.088.017.178.024.268.003.052.01.105.01.158.004.073 0 .145-.001.218-.001.07 0 .14-.005.21-.004.056-.013.113-.02.168-.008.085-.016.172-.03.256-.007.038-.018.076-.025.115a4.498 4.498 0 0 1-.072.316 4.321 4.321 0 0 1-.71 1.431c-.004.007-.008.015-.014.022-.061.08-.129.157-.196.233-.027.03-.052.063-.08.092-.049.053-.103.102-.155.152-.051.05-.1.1-.154.147-.032.027-.066.052-.1.08-.077.063-.155.127-.236.184l-.023.016a4.307 4.307 0 0 1-1.789.718c-.032.006-.065.014-.098.018-.09.012-.181.017-.273.024-.05.004-.1.01-.152.01-.074.003-.15 0-.224-.001-.068-.001-.136-.001-.204-.005-.058-.004-.114-.013-.171-.02a4.436 4.436 0 0 1-.255-.03c-.035-.008-.071-.017-.107-.024a4.297 4.297 0 0 1-2.623-1.66m8.535.662a5.868 5.868 0 0 0 .292-.52l.005-.008a5.633 5.633 0 0 0 .507-1.506c.01-.052.024-.103.033-.155.02-.123.032-.244.046-.366.008-.077.02-.153.025-.23.007-.102.006-.204.008-.305.002-.099.006-.197.003-.296-.003-.08-.012-.159-.018-.24-.008-.119-.016-.238-.032-.358-.007-.056-.02-.11-.029-.166a5.861 5.861 0 0 0-.078-.422l-.01-.035a6.672 6.672 0 0 0-.144-.51c-.005-.011-.011-.022-.015-.034a6.007 6.007 0 0 0-3.557-3.669c-.037-.013-.074-.02-.111-.029a5.452 5.452 0 0 0-2.063-4.154 5.452 5.452 0 0 0-4.037-1.165c-.045.006-.089.017-.133.029a6.619 6.619 0 0 0-5.275-2.63c-2.619 0-4.881 1.529-5.96 3.738-3.325.102-6.002 2.833-6.002 6.183 0 3.162 2.384 5.773 5.447 6.145a4.554 4.554 0 0 0 4.427 3.523c.012 0 .024-.003.035-.004.013.001.023.004.036.004h1.802c1.52 0 2.754 1.19 2.81 2.708 0 .01.004.02.005.03-.001.016-.005.03-.005.046v1.908a.868.868 0 1 0 1.736 0v-1.908c0-.02-.004-.038-.006-.057.002-.028.007-.055.006-.082a4.527 4.527 0 0 0-4.342-4.37c-.033-.005-.065-.012-.1-.012h-1.906c-.013 0-.023.003-.036.004-.011 0-.023-.004-.035-.004a2.815 2.815 0 0 1-2.811-2.81 2.815 2.815 0 0 1 2.811-2.812.868.868 0 0 0 0-1.737 4.55 4.55 0 0 0-4.481 3.809 4.461 4.461 0 0 1-3.656-4.38 4.46 4.46 0 0 1 3.689-4.386 6.62 6.62 0 0 0-.1 1.1.868.868 0 1 0 1.737 0 4.904 4.904 0 0 1 4.899-4.898 4.903 4.903 0 0 1 4.898 4.898.868.868 0 1 0 1.736 0c0-.819-.156-1.6-.428-2.325a3.717 3.717 0 0 1 2.155.812 3.726 3.726 0 0 1 1.388 2.514c.05.44.018.881-.085 1.307a4.517 4.517 0 0 0-.597-.688.868.868 0 1 0-1.19 1.264 2.814 2.814 0 0 1 .118 3.974 2.816 2.816 0 0 1-3.975.12.868.868 0 0 0-1.19 1.264 4.54 4.54 0 0 0 1 .71 5.998 5.998 0 0 0 3.487 3.587c.018.008.032.018.05.025.062.023.124.039.186.06a5.911 5.911 0 0 0 .689.191c.09.02.182.04.273.054.08.013.16.022.24.033.083.01.165.022.248.029.132.01.265.016.398.017.028.001.057.004.085.004h.012c.07 0 .142-.005.213-.008.078-.003.158-.003.235-.01.111-.008.222-.023.331-.038.041-.005.083-.008.123-.015.11-.016.22-.04.33-.063.04-.008.082-.015.122-.025.107-.024.213-.054.319-.085l.129-.038c.038-.012.077-.02.114-.033.053-.018.1-.041.152-.06.083-.031.167-.064.25-.098.086-.037.173-.073.257-.113.076-.036.151-.077.226-.117a7.203 7.203 0 0 0 .626-.378 6.46 6.46 0 0 0 .447-.345c.051-.043.103-.084.152-.129a6.06 6.06 0 0 0 .737-.798l.024-.033c.105-.139.204-.284.298-.433M71.32 20.82h-3.235v-3.134a.717.717 0 0 0-1.433 0v3.134h-3.235a.716.716 0 1 0 0 1.433h3.235v3.135a.717.717 0 0 0 1.433 0v-3.135h3.235a.717.717 0 0 0 0-1.433" fill="#B72F0A"/>
        <path d="M67.387 26.905a5.306 5.306 0 0 1-5.3-5.3c0-2.923 2.378-5.3 5.3-5.3 2.923 0 5.3 2.377 5.3 5.3 0 2.922-2.377 5.3-5.3 5.3m0-12.034a6.74 6.74 0 0 0-6.733 6.734 6.74 6.74 0 0 0 6.733 6.733 6.74 6.74 0 0 0 6.733-6.733 6.74 6.74 0 0 0-6.733-6.734M85.958 12.948H78.055a.716.716 0 1 0 0 1.433H85.958a.717.717 0 0 0 0-1.433" fill="#B72F0A"/>
        <g transform="translate(75.292 7)">
            <mask id="t34b08ij9j" fill="#fff">
                <use xlink:href="#ii2hy1fsai"/>
            </mask>
            <path d="M6.733 12.033a5.306 5.306 0 0 1-5.3-5.3c0-2.923 2.378-5.3 5.3-5.3 2.923 0 5.3 2.377 5.3 5.3 0 2.922-2.377 5.3-5.3 5.3m0-12.034A6.74 6.74 0 0 0 0 6.733a6.74 6.74 0 0 0 6.733 6.733 6.74 6.74 0 0 0 6.733-6.733A6.74 6.74 0 0 0 6.733-.001" fill="#B72F0A" mask="url(#t34b08ij9j)"/>
        </g>
        <path d="m113.728 21.537 2.216-2.217a.716.716 0 1 0-1.013-1.012l-2.216 2.215-2.288-2.287a.716.716 0 1 0-1.013 1.013l2.288 2.288-2.217 2.216a.716.716 0 1 0 1.014 1.013l2.216-2.217 2.288 2.289a.714.714 0 0 0 1.012 0 .714.714 0 0 0 0-1.013l-2.287-2.288z" fill="#B72F0A"/>
        <path d="M112.733 26.905a5.306 5.306 0 0 1-5.3-5.3c0-2.923 2.378-5.3 5.3-5.3 2.923 0 5.3 2.377 5.3 5.3 0 2.922-2.377 5.3-5.3 5.3m0-12.034A6.74 6.74 0 0 0 106 21.605a6.74 6.74 0 0 0 6.733 6.733 6.74 6.74 0 0 0 6.733-6.733 6.74 6.74 0 0 0-6.733-6.734M102.029 13.34h-7.904a.717.717 0 0 0 0 1.433h7.904a.717.717 0 0 0 0-1.433" fill="#B72F0A"/>
        <path d="M98.096 19.424a5.306 5.306 0 0 1-5.3-5.3c0-2.922 2.377-5.3 5.3-5.3 2.922 0 5.3 2.378 5.3 5.3 0 2.923-2.378 5.3-5.3 5.3m0-12.033a6.74 6.74 0 0 0-6.734 6.733 6.74 6.74 0 0 0 6.734 6.733 6.74 6.74 0 0 0 6.733-6.733 6.74 6.74 0 0 0-6.733-6.733" fill="#B72F0A"/>
        <path d="M98.096 12.202a1.08 1.08 0 1 0 0-2.16 1.08 1.08 0 0 0 0 2.16M98.096 15.911a1.08 1.08 0 1 0-.001 2.16 1.08 1.08 0 0 0 0-2.16" fill="#B72F0A"/>
    </g>
</svg>
