<svg width="180" height="125" viewBox="0 0 180 125" xmlns="http://www.w3.org/2000/svg" xmlns:xlink="http://www.w3.org/1999/xlink">
    <defs>
        <path id="f94gq08ora" d="M0 0h4.988v5.74H0z"/>
    </defs>
    <g fill="none" fill-rule="evenodd">
        <path d="M0 0h180v125H0z"/>
        <path d="M61.123 13.148a.268.268 0 0 0-.082.174c-.008.318-.086 1.654-.816 2.54C59.39 16.875 57.987 17 57.987 17s-.26.079 0 .15c.262.07 1.567.171 2.235 1.173.582.875.803 2.058.849 2.343a.25.25 0 0 0 .082.152c.055.047.133.065.201-.088.121-.273-.061-1.113.84-2.397.806-1.15 2.042-1.19 2.291-1.185.04 0 .079-.018.098-.052.018-.03.018-.068-.053-.098-.141-.061-1.441-.057-2.377-1.305-.864-1.154-.852-2.125-.844-2.367a.28.28 0 0 0-.066-.177c-.035-.036-.064-.052-.12 0zM110.751 19.585a.791.791 0 1 1-1.583 0 .791.791 0 0 1 1.583 0z" stroke="#827168"/>
        <g transform="translate(68.787 7)">
            <mask id="vv6tbzayfb" fill="#fff">
                <use xlink:href="#f94gq08ora"/>
            </mask>
            <path d="M2.413.025a.196.196 0 0 0-.061.128c-.006.236-.064 1.228-.605 1.885-.62.751-1.66.844-1.66.844s-.195.058 0 .11c.194.053 1.162.128 1.657.871.432.65.596 1.528.63 1.74a.185.185 0 0 0 .06.113c.042.034.1.048.15-.066.09-.203-.045-.826.623-1.779.599-.854 1.516-.883 1.701-.88a.083.083 0 0 0 .073-.038c.013-.022.013-.05-.04-.073-.105-.045-1.07-.041-1.763-.968C2.536 1.056 2.545.335 2.55.156a.208.208 0 0 0-.049-.131c-.026-.027-.048-.04-.09 0" fill="#827168" mask="url(#vv6tbzayfb)"/>
        </g>
        <path d="M124.082 24.8a.196.196 0 0 0-.061.128c-.006.236-.064 1.228-.606 1.886-.619.75-1.66.843-1.66.843s-.194.059 0 .11c.194.054 1.162.129 1.657.871.433.65.596 1.528.631 1.74a.18.18 0 0 0 .06.112c.041.035.099.049.15-.065.09-.203-.045-.826.623-1.779.598-.854 1.515-.882 1.7-.879a.083.083 0 0 0 .073-.038c.013-.023.013-.05-.04-.073-.105-.045-1.069-.042-1.763-.969-.642-.855-.633-1.576-.626-1.756a.208.208 0 0 0-.049-.131c-.026-.027-.048-.04-.09 0M56.515 41.31a.842.842 0 1 1-1.684.001.842.842 0 0 1 1.684 0M126.645 54.541H54.637a4.498 4.498 0 0 0-4.498 4.498v16.783c0 .897.727 1.624 1.623 1.624h7.136v6.847h5.437v-6.847h53.157v6.847h5.438v-6.847h6.59c.896 0 1.624-.727 1.624-1.624V59.039a4.498 4.498 0 0 0-4.499-4.498M120.54 44.144c-1.7-.938-3.42-1.148-5.348-.644-1.56.408-2.715 1.16-4.222 3.299.078-.095-1.028-.9-1.144-.98-1.905-1.314-4.325-1.507-6.498-.77-.591.2-1.202.503-1.564 1.033.122-4.621-7.123-5.75-10.498-3.186-1.45-4.855-5.965-6.828-10.715-6.693-2.506.07-5.172.846-7.175 2.393-.915.707-1.686 1.612-2.188 2.658-.172.36-1.087 2.858-.629 3.094-.921-.476-1.304-.96-2.595-1.128-2.012-.262-3.814.127-5.036 1.468-.486.533-1.33 1.545-1.33 2.26V43.6c0-1.256.146-2.51.481-3.72.88-3.177 3.31-8.582 9.865-10.788 1.725-.58 3.546-.82 5.366-.82h24.917c.439 0 .876-.015 1.313-.049 2.522-.196 14.283-.355 16.763 13.392l.237 2.528zM17.028 109.47l-.01-.028-.008-.066-.01-.114v-.056l.019-.123a.364.364 0 0 1 .123-.18l.028-.027c.076-.086.282-.124.416-.086.132.048.216.16.283.312l-.01.226a.303.303 0 0 1-.113.199c-.01.01-.028.028-.047.066l.028.048.048.047.301.227c.605.453 1.37.68 2.306.68 2.54 0 3.816-1.097 3.816-3.288 0-1.445-.87-2.702-3.42-3.693-2.55-.983-3.486-1.985-3.486-3.648 0-1.397.218-2.305.888-3.022.68-.738 1.72-1.106 3.108-1.106 1.239.19 1.947.642 2.467 1.247.255.293.377.558.377.86a.99.99 0 0 1-.075.424l-.01.02c0 .056-.02.104-.066.15a.399.399 0 0 1-.18.143l-.028.019-.198.028c-.19-.037-.293-.114-.368-.264a1.11 1.11 0 0 1-.02-.218c.029-.16.095-.284.246-.358.038 0 .057-.02.066-.048v-.057l-.17-.283a1.284 1.284 0 0 0-.16-.236 2.005 2.005 0 0 0-.53-.491c-.49-.312-1.17-.464-2.04-.464-1.738 0-2.664 1.03-2.664 3.072 0 1.406.595 2.068 3.325 3.05 2.731.983 3.741 2.532 3.741 4.507 0 2.532-1.606 3.996-4.289 3.996-1.199 0-2.069-.133-2.617-.397-.49-.237-.83-.557-1.03-.983l-.037-.084z" fill="#827168"/>
        <path d="m17.028 109.47-.01-.028-.008-.066-.01-.114v-.056l.019-.123a.364.364 0 0 1 .123-.18l.028-.027c.076-.086.282-.124.416-.086.132.048.216.16.283.312l-.01.226a.303.303 0 0 1-.113.199c-.01.01-.028.028-.047.066l.028.048.048.047.301.227c.605.453 1.37.68 2.306.68 2.54 0 3.816-1.097 3.816-3.288 0-1.445-.87-2.702-3.42-3.693-2.55-.983-3.486-1.985-3.486-3.648 0-1.397.218-2.305.888-3.022.68-.738 1.72-1.106 3.108-1.106 1.239.19 1.947.642 2.467 1.247.255.293.377.558.377.86a.99.99 0 0 1-.075.424l-.01.02c0 .056-.02.104-.066.15a.399.399 0 0 1-.18.143l-.028.019-.198.028c-.19-.037-.293-.114-.368-.264a1.11 1.11 0 0 1-.02-.218c.029-.16.095-.284.246-.358.038 0 .057-.02.066-.048v-.057l-.17-.283a1.284 1.284 0 0 0-.16-.236 2.005 2.005 0 0 0-.53-.491c-.49-.312-1.17-.464-2.04-.464-1.738 0-2.664 1.03-2.664 3.072 0 1.406.595 2.068 3.325 3.05 2.731.983 3.741 2.532 3.741 4.507 0 2.532-1.606 3.996-4.289 3.996-1.199 0-2.069-.133-2.617-.397-.49-.237-.83-.557-1.03-.983l-.037-.084z" stroke="#827168" stroke-width=".5"/>
        <path d="M27.502 96.461v-.226h1.946v13.349l.028.35c.038.292.132.453.5.528l.435.038v.246h-2.853v-.246c.293 0 .53-.056.7-.17.094-.075.15-.208.17-.397l.038-.463V97.567c0-.094-.01-.179-.02-.246l-.028-.17c-.066-.35-.199-.52-.53-.595l-.386-.095z" fill="#827168"/>
        <path d="M27.502 96.461v-.226h1.946v13.349l.028.35c.038.292.132.453.5.528l.435.038v.246h-2.853v-.246c.293 0 .53-.056.7-.17.094-.075.15-.208.17-.397l.038-.463V97.567c0-.094-.01-.179-.02-.246l-.028-.17c-.066-.35-.199-.52-.53-.595l-.386-.095z" stroke="#827168" stroke-width=".5"/>
        <path d="M40.176 106.268c0-.529-.17-1.039-.472-1.634-.67-1.257-1.805-2.06-2.75-2.06-1.407 0-2.343.935-2.758 2.191-.189.596-.293 1.012-.293 1.503h6.273zm1.001.406h-7.293v.038c0 1.399.596 2.701 1.54 3.448.453.35 1.002.52 1.635.52.746 0 1.426-.218 2.069-.596a3.518 3.518 0 0 0 1.294-1.633h.425c-.453.962-1.02 1.633-1.7 2.011-.756.322-1.408.482-1.947.482l-.274-.01a3.834 3.834 0 0 1-2.863-1.284 4.648 4.648 0 0 1-1.152-3.023c0-1.483.737-2.91 1.984-3.713a3.672 3.672 0 0 1 2.031-.595c1.559 0 2.92.831 3.685 2.154a4.32 4.32 0 0 1 .566 2.154v.047z" fill="#827168"/>
        <path d="M40.176 106.268c0-.529-.17-1.039-.472-1.634-.67-1.257-1.805-2.06-2.75-2.06-1.407 0-2.343.935-2.758 2.191-.189.596-.293 1.012-.293 1.503h6.273zm1.001.406h-7.293v.038c0 1.399.596 2.701 1.54 3.448.453.35 1.002.52 1.635.52.746 0 1.426-.218 2.069-.596a3.518 3.518 0 0 0 1.294-1.633h.425c-.453.962-1.02 1.633-1.7 2.011-.756.322-1.408.482-1.947.482l-.274-.01a3.834 3.834 0 0 1-2.863-1.284 4.648 4.648 0 0 1-1.152-3.023c0-1.483.737-2.91 1.984-3.713a3.672 3.672 0 0 1 2.031-.595c1.559 0 2.92.831 3.685 2.154a4.32 4.32 0 0 1 .566 2.154v.047z" stroke="#827168" stroke-width=".5"/>
        <path d="M50.943 106.268c0-.529-.17-1.039-.473-1.634-.67-1.257-1.805-2.06-2.75-2.06-1.407 0-2.342.935-2.758 2.191-.189.596-.293 1.012-.293 1.503h6.274zm1 .406H44.65v.038c0 1.399.596 2.701 1.54 3.448.454.35 1.002.52 1.635.52.746 0 1.426-.218 2.069-.596a3.518 3.518 0 0 0 1.294-1.633h.425c-.453.962-1.02 1.633-1.7 2.011-.756.322-1.408.482-1.946.482l-.275-.01a3.834 3.834 0 0 1-2.863-1.284 4.648 4.648 0 0 1-1.152-3.023c0-1.483.738-2.91 1.985-3.713a3.672 3.672 0 0 1 2.03-.595c1.56 0 2.92.831 3.685 2.154a4.32 4.32 0 0 1 .566 2.154v.047z" fill="#827168"/>
        <path d="M50.943 106.268c0-.529-.17-1.039-.473-1.634-.67-1.257-1.805-2.06-2.75-2.06-1.407 0-2.342.935-2.758 2.191-.189.596-.293 1.012-.293 1.503h6.274zm1 .406H44.65v.038c0 1.399.596 2.701 1.54 3.448.454.35 1.002.52 1.635.52.746 0 1.426-.218 2.069-.596a3.518 3.518 0 0 0 1.294-1.633h.425c-.453.962-1.02 1.633-1.7 2.011-.756.322-1.408.482-1.946.482l-.275-.01a3.834 3.834 0 0 1-2.863-1.284 4.648 4.648 0 0 1-1.152-3.023c0-1.483.738-2.91 1.985-3.713a3.672 3.672 0 0 1 2.03-.595c1.56 0 2.92.831 3.685 2.154a4.32 4.32 0 0 1 .566 2.154v.047z" stroke="#827168" stroke-width=".5"/>
        <path d="M56.389 106.703c0 1.398.595 2.701 1.549 3.439.473.368.983.557 1.521.557 1.625 0 2.55-.889 2.948-2.136a6.292 6.292 0 0 0 .293-1.917c0-1.436-.727-2.768-1.757-3.524-.52-.368-1.012-.557-1.484-.557-1.407 0-2.342.926-2.758 2.2a6.187 6.187 0 0 0-.312 1.938zm-1.946-4.214h1.946v1.332c.567-.718 1.569-1.51 3.042-1.51 1.559 0 2.919.83 3.685 2.153.377.67.567 1.388.567 2.154a4.349 4.349 0 0 1-2.117 3.712 4.048 4.048 0 0 1-2.135.595 3.77 3.77 0 0 1-2.862-1.303l-.18-.209v6.425l.028.34c.038.303.152.482.5.53l.436.045V117H54.5v-.247c.293 0 .529-.056.699-.169.094-.075.151-.207.17-.407l.038-.453v-11.903c0-.094-.01-.18-.019-.246l-.029-.17c-.066-.349-.199-.519-.529-.595l-.387-.094v-.227z" fill="#827168"/>
        <path d="M56.389 106.703c0 1.398.595 2.701 1.549 3.439.473.368.983.557 1.521.557 1.625 0 2.55-.889 2.948-2.136a6.292 6.292 0 0 0 .293-1.917c0-1.436-.727-2.768-1.757-3.524-.52-.368-1.012-.557-1.484-.557-1.407 0-2.342.926-2.758 2.2a6.187 6.187 0 0 0-.312 1.938zm-1.946-4.214h1.946v1.332c.567-.718 1.569-1.51 3.042-1.51 1.559 0 2.919.83 3.685 2.153.377.67.567 1.388.567 2.154a4.349 4.349 0 0 1-2.117 3.712 4.048 4.048 0 0 1-2.135.595 3.77 3.77 0 0 1-2.862-1.303l-.18-.209v6.425l.028.34c.038.303.152.482.5.53l.436.045V117H54.5v-.247c.293 0 .529-.056.699-.169.094-.075.151-.207.17-.407l.038-.453v-11.903c0-.094-.01-.18-.019-.246l-.029-.17c-.066-.349-.199-.519-.529-.595l-.387-.094v-.227z" stroke="#827168" stroke-width=".5"/>
        <path d="M68.43 108.469c.416 1.247 1.341 2.192 2.768 2.192.955 0 2.07-.785 2.74-2.06.33-.633.5-1.313.5-2.021 0-1.332-.33-2.617-1.294-3.44-.481-.405-1.134-.614-1.946-.614-1.096 0-2.078.775-2.645 2.023a4.772 4.772 0 0 0-.425 1.974c0 .67.104 1.323.302 1.946zm-.302 2.267h-1.946v-.226l.387-.085c.312-.075.454-.227.529-.595l.048-.426V97.255a2.65 2.65 0 0 1-.048-.311.455.455 0 0 0-.16-.303c-.16-.113-.397-.17-.7-.17v-.246h1.89v7.586l.18-.216c.708-.785 1.757-1.295 2.862-1.295 1.549 0 2.91.83 3.675 2.164.387.67.577 1.379.577 2.144a4.35 4.35 0 0 1-2.108 3.712 4.053 4.053 0 0 1-2.144.596c-1.465 0-2.447-.766-3.042-1.512v1.332z" fill="#827168"/>
        <path d="M68.43 108.469c.416 1.247 1.341 2.192 2.768 2.192.955 0 2.07-.785 2.74-2.06.33-.633.5-1.313.5-2.021 0-1.332-.33-2.617-1.294-3.44-.481-.405-1.134-.614-1.946-.614-1.096 0-2.078.775-2.645 2.023a4.772 4.772 0 0 0-.425 1.974c0 .67.104 1.323.302 1.946zm-.302 2.267h-1.946v-.226l.387-.085c.312-.075.454-.227.529-.595l.048-.426V97.255a2.65 2.65 0 0 1-.048-.311.455.455 0 0 0-.16-.303c-.16-.113-.397-.17-.7-.17v-.246h1.89v7.586l.18-.216c.708-.785 1.757-1.295 2.862-1.295 1.549 0 2.91.83 3.675 2.164.387.67.577 1.379.577 2.144a4.35 4.35 0 0 1-2.108 3.712 4.053 4.053 0 0 1-2.144.596c-1.465 0-2.447-.766-3.042-1.512v1.332z" stroke="#827168" stroke-width=".5"/>
        <path d="M85.187 106.268c0-.529-.17-1.039-.473-1.634-.67-1.257-1.805-2.06-2.75-2.06-1.407 0-2.342.935-2.758 2.191-.189.596-.293 1.012-.293 1.503h6.274zm1 .406h-7.293v.038c0 1.399.596 2.701 1.54 3.448.454.35 1.002.52 1.635.52.746 0 1.426-.218 2.069-.596a3.518 3.518 0 0 0 1.294-1.633h.425c-.453.962-1.02 1.633-1.7 2.011-.756.322-1.408.482-1.946.482l-.275-.01a3.834 3.834 0 0 1-2.863-1.284 4.648 4.648 0 0 1-1.152-3.023c0-1.483.737-2.91 1.985-3.713a3.672 3.672 0 0 1 2.03-.595c1.56 0 2.92.831 3.685 2.154a4.32 4.32 0 0 1 .566 2.154v.047z" fill="#827168"/>
        <path d="M85.187 106.268c0-.529-.17-1.039-.473-1.634-.67-1.257-1.805-2.06-2.75-2.06-1.407 0-2.342.935-2.758 2.191-.189.596-.293 1.012-.293 1.503h6.274zm1 .406h-7.293v.038c0 1.399.596 2.701 1.54 3.448.454.35 1.002.52 1.635.52.746 0 1.426-.218 2.069-.596a3.518 3.518 0 0 0 1.294-1.633h.425c-.453.962-1.02 1.633-1.7 2.011-.756.322-1.408.482-1.946.482l-.275-.01a3.834 3.834 0 0 1-2.863-1.284 4.648 4.648 0 0 1-1.152-3.023c0-1.483.737-2.91 1.985-3.713a3.672 3.672 0 0 1 2.03-.595c1.56 0 2.92.831 3.685 2.154a4.32 4.32 0 0 1 .566 2.154v.047z" stroke="#827168" stroke-width=".5"/>
        <path d="M88.687 102.498h.972v-2.135h.983v2.135h.908v.407h-.908v6.575l.028.462c.038.379.274.568.88.568v.245h-.407c-.992 0-1.484-.387-1.484-1.162v-6.688h-.972v-.407z" fill="#827168"/>
        <path d="M88.687 102.498h.972v-2.135h.983v2.135h.908v.407h-.908v6.575l.028.462c.038.379.274.568.88.568v.245h-.407c-.992 0-1.484-.387-1.484-1.162v-6.688h-.972v-.407z" stroke="#827168" stroke-width=".5"/>
        <path d="M94.05 102.498h.972v-2.135h.983v2.135h.908v.407h-.908v6.575l.028.462c.038.379.274.568.88.568v.245h-.407c-.992 0-1.484-.387-1.484-1.162v-6.688h-.972v-.407z" fill="#827168"/>
        <path d="M94.05 102.498h.972v-2.135h.983v2.135h.908v.407h-.908v6.575l.028.462c.038.379.274.568.88.568v.245h-.407c-.992 0-1.484-.387-1.484-1.162v-6.688h-.972v-.407z" stroke="#827168" stroke-width=".5"/>
        <path d="M106.678 106.268c0-.529-.17-1.039-.472-1.634-.67-1.257-1.805-2.06-2.75-2.06-1.407 0-2.343.935-2.758 2.191-.189.596-.293 1.012-.293 1.503h6.273zm1.001.406h-7.293v.038c0 1.399.596 2.701 1.54 3.448.453.35 1.002.52 1.635.52.746 0 1.426-.218 2.069-.596a3.518 3.518 0 0 0 1.294-1.633h.425c-.453.962-1.02 1.633-1.7 2.011-.756.322-1.408.482-1.947.482l-.274-.01a3.834 3.834 0 0 1-2.863-1.284 4.648 4.648 0 0 1-1.152-3.023c0-1.483.737-2.91 1.984-3.713a3.672 3.672 0 0 1 2.031-.595c1.559 0 2.92.831 3.685 2.154a4.32 4.32 0 0 1 .566 2.154v.047z" fill="#827168"/>
        <path d="M106.678 106.268c0-.529-.17-1.039-.472-1.634-.67-1.257-1.805-2.06-2.75-2.06-1.407 0-2.343.935-2.758 2.191-.189.596-.293 1.012-.293 1.503h6.273zm1.001.406h-7.293v.038c0 1.399.596 2.701 1.54 3.448.453.35 1.002.52 1.635.52.746 0 1.426-.218 2.069-.596a3.518 3.518 0 0 0 1.294-1.633h.425c-.453.962-1.02 1.633-1.7 2.011-.756.322-1.408.482-1.947.482l-.274-.01a3.834 3.834 0 0 1-2.863-1.284 4.648 4.648 0 0 1-1.152-3.023c0-1.483.737-2.91 1.984-3.713a3.672 3.672 0 0 1 2.031-.595c1.559 0 2.92.831 3.685 2.154a4.32 4.32 0 0 1 .566 2.154v.047z" stroke="#827168" stroke-width=".5"/>
        <path d="m112.106 109.575.028.35c.038.292.133.452.5.528l.436.038v.246h-2.854v-.246c.293 0 .53-.056.7-.17.094-.076.15-.208.17-.396l.038-.464.018-5.64c0-.094-.009-.18-.018-.246l-.029-.17c-.066-.35-.198-.52-.53-.594l-.386-.095v-.227h1.945v1.313c.294-.462.7-.991 1.276-1.295l.227-.094a1.43 1.43 0 0 1 .406-.094l.066.01.104.038.151.104a.385.385 0 0 1 .123.188l.01.038.019.094-.02.104a.414.414 0 0 1-.283.312.436.436 0 0 1-.425-.085.361.361 0 0 1-.131-.198c0-.029-.02-.047-.03-.057l-.084.028a3.146 3.146 0 0 0-.7.955c-.425.991-.66 1.776-.718 2.333l-.01 3.392z" fill="#827168"/>
        <path d="m112.106 109.575.028.35c.038.292.133.452.5.528l.436.038v.246h-2.854v-.246c.293 0 .53-.056.7-.17.094-.076.15-.208.17-.396l.038-.464.018-5.64c0-.094-.009-.18-.018-.246l-.029-.17c-.066-.35-.198-.52-.53-.594l-.386-.095v-.227h1.945v1.313c.294-.462.7-.991 1.276-1.295l.227-.094a1.43 1.43 0 0 1 .406-.094l.066.01.104.038.151.104a.385.385 0 0 1 .123.188l.01.038.019.094-.02.104a.414.414 0 0 1-.283.312.436.436 0 0 1-.425-.085.361.361 0 0 1-.131-.198c0-.029-.02-.047-.03-.057l-.084.028a3.146 3.146 0 0 0-.7.955c-.425.991-.66 1.776-.718 2.333l-.01 3.392z" stroke="#827168" stroke-width=".5"/>
        <path fill="#827168" d="m117.006 109.971.794-.794.783.794-.783.813z"/>
        <path stroke="#827168" stroke-width=".5" d="m117.006 109.971.794-.794.783.794-.783.813z"/>
        <path d="M123.04 102.905v6.622c0 .095.01.19.039.293.018.217.084.368.188.453a.878.878 0 0 0 .246.123l1.965.019c1.549 0 2.815-.747 3.458-1.862a3.47 3.47 0 0 0 .481-1.766c0-1.369-.784-2.654-1.833-3.362-.52-.35-.963-.52-1.407-.52h-3.137zm0-5.46v5.053h3.335c.681 0 1.493-.69 1.984-1.606.246-.453.368-.879.368-1.275 0-1.587-1.284-2.986-3.22-2.986h-2.127c-.141 0-.245.17-.301.511l-.039.302zm-.991 11.96V97.566a1.7 1.7 0 0 0-.019-.246l-.029-.17c-.065-.35-.198-.52-.53-.595l-.386-.095v-.226h4.421c.794 0 1.502.142 2.182.473 1.352.632 2.173 1.747 2.173 2.88 0 1.02-.52 1.938-1.454 2.552-.444.282-.87.472-1.285.557 1.086.302 2.39 1.19 3.032 2.333.322.577.482 1.162.482 1.757 0 1.323-1.039 2.636-2.608 3.392a5.496 5.496 0 0 1-2.409.567h-4.477l-.057-.01v-.226l.387-.085c.312-.076.454-.227.53-.595l.047-.426z" fill="#827168"/>
        <path d="M123.04 102.905v6.622c0 .095.01.19.039.293.018.217.084.368.188.453a.878.878 0 0 0 .246.123l1.965.019c1.549 0 2.815-.747 3.458-1.862a3.47 3.47 0 0 0 .481-1.766c0-1.369-.784-2.654-1.833-3.362-.52-.35-.963-.52-1.407-.52h-3.137zm0-5.46v5.053h3.335c.681 0 1.493-.69 1.984-1.606.246-.453.368-.879.368-1.275 0-1.587-1.284-2.986-3.22-2.986h-2.127c-.141 0-.245.17-.301.511l-.039.302zm-.991 11.96V97.566a1.7 1.7 0 0 0-.019-.246l-.029-.17c-.065-.35-.198-.52-.53-.595l-.386-.095v-.226h4.421c.794 0 1.502.142 2.182.473 1.352.632 2.173 1.747 2.173 2.88 0 1.02-.52 1.938-1.454 2.552-.444.282-.87.472-1.285.557 1.086.302 2.39 1.19 3.032 2.333.322.577.482 1.162.482 1.757 0 1.323-1.039 2.636-2.608 3.392a5.496 5.496 0 0 1-2.409.567h-4.477l-.057-.01v-.226l.387-.085c.312-.076.454-.227.53-.595l.047-.426z" stroke="#827168" stroke-width=".5"/>
        <path d="M133.844 108.337c0 .794.33 1.587.897 2.013.284.216.67.32 1.172.32 1.322 0 1.776-.529 2.002-1.247.114-.35.17-.727.17-1.115 0-.831-.425-1.634-1.02-2.068-.302-.218-.69-.322-1.152-.322-1.2 0-1.653.53-1.89 1.285a3.902 3.902 0 0 0-.179 1.134zm-.548-4.6.01-.067.18-.245c.084-.199.291-.473.858-.785.275-.15.746-.254 1.408-.32 1.011 0 1.72.188 2.145.576l.188.206c.615.69.983 1.541.983 2.533v3.836l.029.462c.037.378.274.567.878.567v.246h-.407c-.585 0-.982-.104-1.19-.302a.862.862 0 0 1-.264-.444 2.224 2.224 0 0 1-.66.566c-.408.236-.937.36-1.598.36-1.067 0-1.587-.294-2.022-.785a2.922 2.922 0 0 1-.528-.86 2.945 2.945 0 0 1-.18-.982c0-.907.444-1.776 1.21-2.267.376-.246.887-.368 1.52-.368.67 0 1.2.122 1.597.358.236.142.452.322.632.53v-2.24c0-.86-.566-1.36-1.124-1.558-.283-.104-.623-.152-1.02-.152-.217 0-.435.01-.632.048a2.37 2.37 0 0 0-1.022.51l-.292.283-.02.047.048.066c.113.086.142.218.142.416-.029.142-.113.274-.274.321l-.236.028a.338.338 0 0 1-.18-.084l-.028-.028c-.104-.076-.151-.199-.151-.34v-.133z" fill="#827168"/>
        <path d="M133.844 108.337c0 .794.33 1.587.897 2.013.284.216.67.32 1.172.32 1.322 0 1.776-.529 2.002-1.247.114-.35.17-.727.17-1.115 0-.831-.425-1.634-1.02-2.068-.302-.218-.69-.322-1.152-.322-1.2 0-1.653.53-1.89 1.285a3.902 3.902 0 0 0-.179 1.134zm-.548-4.6.01-.067.18-.245c.084-.199.291-.473.858-.785.275-.15.746-.254 1.408-.32 1.011 0 1.72.188 2.145.576l.188.206c.615.69.983 1.541.983 2.533v3.836l.029.462c.037.378.274.567.878.567v.246h-.407c-.585 0-.982-.104-1.19-.302a.862.862 0 0 1-.264-.444 2.224 2.224 0 0 1-.66.566c-.408.236-.937.36-1.598.36-1.067 0-1.587-.294-2.022-.785a2.922 2.922 0 0 1-.528-.86 2.945 2.945 0 0 1-.18-.982c0-.907.444-1.776 1.21-2.267.376-.246.887-.368 1.52-.368.67 0 1.2.122 1.597.358.236.142.452.322.632.53v-2.24c0-.86-.566-1.36-1.124-1.558-.283-.104-.623-.152-1.02-.152-.217 0-.435.01-.632.048a2.37 2.37 0 0 0-1.022.51l-.292.283-.02.047.048.066c.113.086.142.218.142.416-.029.142-.113.274-.274.321l-.236.028a.338.338 0 0 1-.18-.084l-.028-.028c-.104-.076-.151-.199-.151-.34v-.133z" stroke="#827168" stroke-width=".5"/>
        <path d="M144.723 108.469c.416 1.247 1.341 2.192 2.768 2.192.954 0 2.069-.785 2.74-2.06.33-.633.5-1.313.5-2.021 0-1.332-.33-2.617-1.294-3.44-.482-.405-1.134-.614-1.946-.614-1.096 0-2.078.775-2.646 2.023a4.772 4.772 0 0 0-.424 1.974c0 .67.104 1.323.302 1.946zm-.302 2.267h-1.947v-.226l.388-.085c.312-.075.454-.227.529-.595l.048-.426V97.255a2.649 2.649 0 0 1-.048-.311.455.455 0 0 0-.16-.303c-.161-.113-.397-.17-.7-.17v-.246h1.89v7.586l.18-.216c.708-.785 1.757-1.295 2.861-1.295 1.55 0 2.91.83 3.675 2.164.388.67.577 1.379.577 2.144a4.35 4.35 0 0 1-2.107 3.712 4.053 4.053 0 0 1-2.145.596c-1.464 0-2.447-.766-3.041-1.512v1.332z" fill="#827168"/>
        <path d="M144.723 108.469c.416 1.247 1.341 2.192 2.768 2.192.954 0 2.069-.785 2.74-2.06.33-.633.5-1.313.5-2.021 0-1.332-.33-2.617-1.294-3.44-.482-.405-1.134-.614-1.946-.614-1.096 0-2.078.775-2.646 2.023a4.772 4.772 0 0 0-.424 1.974c0 .67.104 1.323.302 1.946zm-.302 2.267h-1.947v-.226l.388-.085c.312-.075.454-.227.529-.595l.048-.426V97.255a2.649 2.649 0 0 1-.048-.311.455.455 0 0 0-.16-.303c-.161-.113-.397-.17-.7-.17v-.246h1.89v7.586l.18-.216c.708-.785 1.757-1.295 2.861-1.295 1.55 0 2.91.83 3.675 2.164.388.67.577 1.379.577 2.144a4.35 4.35 0 0 1-2.107 3.712 4.053 4.053 0 0 1-2.145.596c-1.464 0-2.447-.766-3.041-1.512v1.332z" stroke="#827168" stroke-width=".5"/>
        <path d="m158.559 110.15.784-2.437.963-3.033.18-.65c.076-.284.114-.549.114-.795 0-.302-.066-.396-.444-.472l-.435-.047v-.227h2.627v.227c-.785 0-1.04.283-1.332 1.048-.124.331-.218.614-.304.916l-.962 3.033-.038.114-.935 2.948-1.446 4.496a9.004 9.004 0 0 1-.255.727l-.066.151-.142.274a.77.77 0 0 1-.141.199c-.048.085-.143.18-.284.302l-.066.02-.113.028h-.18a.549.549 0 0 1-.199-.114l-.027-.019c-.104-.076-.152-.227-.124-.406a.429.429 0 0 1 .265-.311c.056-.01.133-.02.236-.02.075 0 .142.03.208.095.02.029.047.038.075.038l.047-.019.114-.16 1.464-4.582-2.522-7.19-.312-.727c-.264-.614-.33-.652-.755-.756l-.483-.085v-.227h3.203v.227c-.434 0-.699.075-.794.235a.509.509 0 0 0-.056.228c0 .217.028.425.133.737l.226.652 1.776 5.583z" fill="#827168"/>
        <path d="m158.559 110.15.784-2.437.963-3.033.18-.65c.076-.284.114-.549.114-.795 0-.302-.066-.396-.444-.472l-.435-.047v-.227h2.627v.227c-.785 0-1.04.283-1.332 1.048-.124.331-.218.614-.304.916l-.962 3.033-.038.114-.935 2.948-1.446 4.496a9.004 9.004 0 0 1-.255.727l-.066.151-.142.274a.77.77 0 0 1-.141.199c-.048.085-.143.18-.284.302l-.066.02-.113.028h-.18a.549.549 0 0 1-.199-.114l-.027-.019c-.104-.076-.152-.227-.124-.406a.429.429 0 0 1 .265-.311c.056-.01.133-.02.236-.02.075 0 .142.03.208.095.02.029.047.038.075.038l.047-.019.114-.16 1.464-4.582-2.522-7.19-.312-.727c-.264-.614-.33-.652-.755-.756l-.483-.085v-.227h3.203v.227c-.434 0-.699.075-.794.235a.509.509 0 0 0-.056.228c0 .217.028.425.133.737l.226.652 1.776 5.583z" stroke="#827168" stroke-width=".5"/>
    </g>
</svg>
