<svg width="180" height="125" viewBox="0 0 180 125" xmlns="http://www.w3.org/2000/svg" xmlns:xlink="http://www.w3.org/1999/xlink">
    <defs>
        <path id="z1xw236gna" d="M0 0h180v125H0z"/>
        <path id="h96qom0u8c" d="M0 0h15.987v21.189H0z"/>
        <path id="bsgqx0pxve" d="M0 0h15.987v21.189H0z"/>
        <path id="scpy9o7p7g" d="M0 0h44.216v14.803H0z"/>
    </defs>
    <g fill="none" fill-rule="evenodd">
        <mask id="vs3nk3nmmb" fill="#fff">
            <use xlink:href="#z1xw236gna"/>
        </mask>
        <g mask="url(#vs3nk3nmmb)">
            <g transform="translate(18 35.559)">
                <mask id="hazzfj1k4d" fill="#fff">
                    <use xlink:href="#h96qom0u8c"/>
                </mask>
                <path d="M3.716 14.373c.155.129.357.3.6.517.244.216.523.43.835.641.469.314.934.557 1.392.731.46.176.945.224 1.45.263 1.83.142 2.295-1.023 2.373-1.253.08-.23.289-1.26-1-2.094-.301-.195-.638-.325-.98-.448a33.91 33.91 0 0 0-.882-.311c-1.105-.385-2.07-.802-2.897-1.248-.828-.445-1.517-.942-2.07-1.488a5.568 5.568 0 0 1-1.241-1.806C1.019 7.221.883 6.487.883 5.68c0-.855.172-1.63.516-2.33a5.125 5.125 0 0 1 1.477-1.792c.638-.495 1.408-.88 2.31-1.15C6.087.135 7.097 0 8.207 0c.838 0 1.64.094 2.408.283.768.188 1.524.49 2.27.903.312.185.608.375.889.573.28.198.527.388.738.572.211.185.38.359.503.525.126.165.187.307.187.427s-.03.23-.09.332a1.97 1.97 0 0 1-.27.345l-2.036 2.176c-.155.156-.312.235-.467.235a.597.597 0 0 1-.352-.112 4.592 4.592 0 0 1-.353-.275l-.123-.11a11.687 11.687 0 0 0-.613-.483 5.57 5.57 0 0 0-.725-.448 4.253 4.253 0 0 0-.816-.332c-.332-.092-2.276-.645-2.984.693-.1.19-.18.398-.18.656 0 .257.066.48.194.668.13.189.323.364.579.524.258.162.577.314.959.456.381.143.826.296 1.331.463.975.32 1.875.658 2.697 1.013a9.109 9.109 0 0 1 2.133 1.255 5.18 5.18 0 0 1 1.399 1.731c.336.672.503 1.486.503 2.442 0 1.012-.207 1.929-.62 2.753a6.273 6.273 0 0 1-1.704 2.103c-.721.58-1.57 1.028-2.544 1.346-.977.316-2.025.475-3.146.475a8.921 8.921 0 0 1-3.119-.567A12.019 12.019 0 0 1 1.998 19.1a7.487 7.487 0 0 1-.93-.79 53.444 53.444 0 0 1-.6-.621l-.042-.042c-.008-.019-.017-.03-.026-.035a.09.09 0 0 1-.03-.021.086.086 0 0 0-.027-.035.119.119 0 0 1-.027-.02c-.21-.23-.316-.416-.316-.554 0-.157.106-.332.316-.525l2.338-2.21c.193-.138.348-.206.47-.206.082 0 .168.027.26.083.092.055.202.137.332.248" fill="#EE7E27" mask="url(#hazzfj1k4d)"/>
            </g>
            <path d="M36.706 40.043c0-.295.083-.548.247-.76.166-.21.424-.317.774-.317h3.16c.11 0 .229.026.356.076.13.05.25.124.36.22.11.097.204.21.283.338.078.13.116.276.116.443v15.381c0 .35-.096.614-.29.793-.192.18-.469.27-.825.27h-3.16c-.682 0-1.021-.355-1.021-1.063V40.043zm0-6.981c0-.386.083-.66.247-.82.166-.161.424-.242.774-.242h3.2c.32 0 .581.08.779.241.197.16.296.435.296.821v2.69c0 .11-.024.23-.076.36-.05.127-.121.252-.213.37-.092.12-.205.22-.337.298a.884.884 0 0 1-.45.117h-3.199c-.682 0-1.021-.382-1.021-1.145v-2.69zM45.305 39.213c.119-.101.247-.165.38-.193a1.85 1.85 0 0 1 .379-.042l2.271.002c.166 0 .308.03.427.09.12.059.222.14.305.24.08.102.12.21.17.338.05.13.07 1.587.07 1.587.235-.547 1.339-1.265 2.02-1.677.443-.27.981-.453 1.58-.614a7.716 7.716 0 0 1 1.999-.24c1.048 0 1.985.201 2.809.605a6.264 6.264 0 0 1 2.097 1.65 7.298 7.298 0 0 1 1.309 2.445 9.73 9.73 0 0 1 .45 2.984v9.036c0 .349-.078.614-.228.793-.153.18-.393.269-.725.269h-3.186c-.395 0-.667-.066-.815-.2-.146-.134-.22-.393-.22-.779v-8.981c0-.395-.09-.77-.27-1.124a3.283 3.283 0 0 0-.71-.938 3.395 3.395 0 0 0-1-.641 2.892 2.892 0 0 0-1.137-.235c-.332 0-.669.073-1.014.22a3.396 3.396 0 0 0-.952.614c-.29.263-.535.57-.732.924-.198.355-.31.739-.337 1.152v8.968c0 .155-.032.312-.09.468a.753.753 0 0 1-.27.359c-.119.074-.23.124-.336.151a1.45 1.45 0 0 1-.366.042h-3.12c-.394 0-.68-.097-.855-.29-.175-.193-.26-.45-.26-.772V39.998c0-.176.038-.335.117-.482a.88.88 0 0 1 .323-.345l-.083.042z" fill="#EE7E27"/>
            <path d="M64.026 81.637c-1.348-3.14-1.89-6.056-1.32-9.146.29-1.576.857-2.37 1.425-2.375.569.006 1.135.799 1.426 2.375.57 3.09.028 6.007-1.32 9.146-.058.12-.071.171-.106.182-.034-.01-.048-.062-.105-.182m4.86 4.906a24.347 24.347 0 0 1-1.544-1.085s.557-.767.995-1.577c.478-.884.864-1.785 1.173-2.698l.02-.004c1.1-3.252 1.163-6.67.382-10.12-.76-3.356-2.9-5.181-5.772-5.377h-.018c-2.87.196-5.011 2.021-5.771 5.378-.855 3.78-.7 7.524.728 11.053l.022.008c.24.593.512 1.18.825 1.76.438.81.908 1.56.908 1.56-.179.14-.849.719-1.457 1.102-1.832 1.158-1.514 1.563-.874 2.489 1.33 1.923 1.521 1.71 2.699 1.084 1.413-.752 2.604-1.665 2.928-1.983.366.336 1.516 1.23 2.93 1.983 1.178.626 1.37.84 2.7-1.084.64-.926.958-1.331-.875-2.489" fill="#056A30"/>
            <path d="M77.422 47.933a4.249 4.249 0 0 1-1.325 2.91c-.386.369-.84.656-1.358.863a4.455 4.455 0 0 1-1.664.31 3.96 3.96 0 0 1-1.634-.33 3.76 3.76 0 0 1-1.262-.91 3.992 3.992 0 0 1-.806-1.374 5.083 5.083 0 0 1-.283-1.718c0-.588.094-1.15.283-1.682.186-.533.455-.999.806-1.394.35-.395.77-.71 1.262-.945a3.753 3.753 0 0 1 1.634-.351 4.14 4.14 0 0 1 1.664.337 4.41 4.41 0 0 1 1.358.911c.387.382.696.823.932 1.325.234.5.364 1.031.393 1.593v.455zm4.661-8.456a.899.899 0 0 0-.253-.318 1.324 1.324 0 0 0-.353-.193 1.14 1.14 0 0 0-.386-.069h-2.057c-.184 0-.332.023-.447.069a1.124 1.124 0 0 0-.308.18c-.087.074-.292.284-.307.772l-.022 1.438c-.06-.104-.124-.2-.191-.294-1.115-1.664-2.97-2.18-4.077-2.333a6.016 6.016 0 0 0-.205-.025c-.427-.047-.705-.042-.705-.042-1.242 0-2.391.233-3.449.697a8.393 8.393 0 0 0-2.746 1.917 8.777 8.777 0 0 0-1.805 2.87c-.433 1.099-.649 2.279-.649 3.538 0 1.27.216 2.433.65 3.49a8.002 8.002 0 0 0 1.804 2.726 8.24 8.24 0 0 0 2.746 1.772c1.058.423 2.207.634 3.45.634.56 0 1.052-.066 1.474-.2a4.665 4.665 0 0 0 1.139-.524c.337-.215.642-.462.918-.737.276-.276.548-.557.813-.842v.186c0 .041.002.077.009.103a.695.695 0 0 1 .006.103v.187c0 .24-.01.47-.029.69a2.4 2.4 0 0 1-.123.606 2.48 2.48 0 0 1-.613 1.077c-.3.312-.644.578-1.035.793-.39.217-.813.38-1.262.49-.451.11-.885.166-1.298.166-.25 0-.525-.012-.835-.035a5.594 5.594 0 0 1-.937-.152 5.558 5.558 0 0 1-.924-.316c-.3-.134-1.363-.772-1.656-.757a.72.72 0 0 0-.36.103c-.11.069-.124.066-.254.205l-1.31 1.807c-.175.257-.262.5-.262.731a.92.92 0 0 0 .143.504c.097.151.216.277.353.38.404.357.871.673 1.401.943a9.94 9.94 0 0 0 1.641.67c.566.175 1.134.306 1.704.392.569.088 1.103.132 1.6.132 1.28 0 2.473-.202 3.587-.606a8.263 8.263 0 0 0 2.89-1.766c.813-.773 1.455-1.72 1.924-2.843.47-1.121.703-2.4.703-3.835V39.918a.967.967 0 0 0-.097-.441z" fill="#EE7E27"/>
            <path d="M90.295 49.932c.155.129.357.3.6.517.245.216.523.43.835.641.47.313.934.557 1.392.73.46.176.945.224 1.45.264 1.831.141 2.295-1.023 2.374-1.253.079-.23.288-1.26-1.001-2.095-.3-.194-.638-.324-.98-.448a33.91 33.91 0 0 0-.882-.31c-1.104-.386-2.07-.802-2.896-1.248-.829-.446-1.518-.942-2.07-1.489a5.568 5.568 0 0 1-1.242-1.805c-.276-.656-.413-1.39-.413-2.198 0-.855.173-1.63.516-2.33a5.125 5.125 0 0 1 1.478-1.792c.637-.495 1.408-.88 2.31-1.151.9-.27 1.909-.406 3.02-.406.838 0 1.64.094 2.407.283.768.188 1.525.489 2.27.903.312.185.609.375.89.573.28.198.527.388.738.572.21.184.38.358.503.525.126.165.186.307.186.427s-.03.23-.09.332a1.97 1.97 0 0 1-.27.344l-2.035 2.177c-.155.156-.313.234-.467.234a.597.597 0 0 1-.353-.11 4.592 4.592 0 0 1-.352-.276l-.124-.11a11.687 11.687 0 0 0-.613-.484 5.57 5.57 0 0 0-.725-.448 4.253 4.253 0 0 0-.815-.33c-.332-.093-2.276-.647-2.984.692-.101.19-.18.398-.18.656 0 .257.065.48.193.668.13.189.323.364.58.524.258.162.577.313.958.456.382.142.826.296 1.331.462.975.321 1.875.66 2.697 1.014a9.109 9.109 0 0 1 2.133 1.255 5.18 5.18 0 0 1 1.4 1.731c.336.672.502 1.486.502 2.442 0 1.011-.207 1.929-.62 2.753a6.273 6.273 0 0 1-1.704 2.103c-.72.58-1.57 1.028-2.544 1.346-.976.316-2.025.475-3.146.475a8.921 8.921 0 0 1-3.118-.567 12.019 12.019 0 0 1-2.856-1.521 7.487 7.487 0 0 1-.93-.79 53.444 53.444 0 0 1-.601-.622l-.041-.041c-.009-.02-.018-.03-.027-.035a.09.09 0 0 1-.029-.021.086.086 0 0 0-.027-.035.119.119 0 0 1-.027-.02c-.211-.23-.317-.416-.317-.554 0-.157.106-.332.317-.525l2.337-2.21c.194-.138.348-.207.47-.207.083 0 .168.028.26.084.092.055.202.136.332.248M105.285 40.043c0-.295.083-.548.247-.76.166-.21.424-.317.775-.317h3.159c.11 0 .229.026.357.076.13.05.249.124.36.22.11.097.203.21.282.338.079.13.117.276.117.443v15.381c0 .35-.097.614-.29.793-.193.18-.47.27-.826.27h-3.16c-.682 0-1.02-.355-1.02-1.063V40.043zm0-6.981c0-.386.083-.66.247-.82.166-.161.424-.242.775-.242h3.2c.32 0 .58.08.778.241.198.16.297.435.297.821v2.69c0 .11-.025.23-.077.36-.049.127-.12.252-.213.37-.092.12-.204.22-.337.298a.884.884 0 0 1-.449.117h-3.2c-.682 0-1.02-.382-1.02-1.145v-2.69zM113.884 39.213c.12-.101.247-.165.38-.193a1.85 1.85 0 0 1 .38-.042l2.27.002c.166 0 .308.03.427.09.121.059.222.14.305.24.08.102.12.21.171.338.05.13.069 1.587.069 1.587.236-.547 1.34-1.265 2.02-1.677.444-.27.981-.453 1.58-.614a7.716 7.716 0 0 1 2-.24c1.048 0 1.984.201 2.808.605a6.264 6.264 0 0 1 2.097 1.65 7.298 7.298 0 0 1 1.31 2.445 9.73 9.73 0 0 1 .449 2.984v9.036c0 .349-.077.614-.227.793-.153.18-.393.269-.725.269h-3.187c-.395 0-.666-.066-.815-.2-.146-.134-.22-.393-.22-.779v-8.981c0-.395-.09-.77-.27-1.124a3.283 3.283 0 0 0-.709-.938 3.395 3.395 0 0 0-1.001-.641 2.892 2.892 0 0 0-1.136-.235c-.332 0-.67.073-1.015.22a3.396 3.396 0 0 0-.952.614c-.29.263-.535.57-.732.924-.198.355-.31.739-.337 1.152v8.968c0 .155-.032.312-.09.468a.753.753 0 0 1-.269.359c-.12.074-.231.124-.337.151a1.45 1.45 0 0 1-.366.042h-3.119c-.395 0-.68-.097-.855-.29-.175-.193-.26-.45-.26-.772V39.998c0-.176.038-.335.116-.482a.88.88 0 0 1 .323-.345l-.083.042zM146.002 47.933a4.249 4.249 0 0 1-1.325 2.91c-.386.369-.84.656-1.359.863a4.455 4.455 0 0 1-1.663.31 3.96 3.96 0 0 1-1.635-.33 3.76 3.76 0 0 1-1.262-.91 3.992 3.992 0 0 1-.806-1.374 5.083 5.083 0 0 1-.283-1.718c0-.588.095-1.15.283-1.682.186-.533.456-.999.806-1.394.35-.395.77-.71 1.262-.945a3.753 3.753 0 0 1 1.635-.351 4.14 4.14 0 0 1 1.663.337 4.41 4.41 0 0 1 1.359.911c.386.382.696.823.932 1.325.233.5.364 1.031.393 1.593v.455zm4.66-8.456a.899.899 0 0 0-.253-.318 1.324 1.324 0 0 0-.353-.193 1.14 1.14 0 0 0-.386-.069h-2.056c-.184 0-.333.023-.447.069a1.124 1.124 0 0 0-.308.18c-.088.074-.293.284-.307.772l-.023 1.438c-.06-.104-.124-.2-.19-.294-1.116-1.664-2.97-2.18-4.077-2.333a6.016 6.016 0 0 0-.205-.025c-.428-.047-.705-.042-.705-.042-1.242 0-2.392.233-3.45.697a8.393 8.393 0 0 0-2.745 1.917 8.777 8.777 0 0 0-1.805 2.87c-.434 1.099-.65 2.279-.65 3.538 0 1.27.216 2.433.65 3.49a8.001 8.001 0 0 0 1.805 2.726 8.24 8.24 0 0 0 2.746 1.772c1.057.423 2.207.634 3.449.634.56 0 1.053-.066 1.475-.2a4.665 4.665 0 0 0 1.138-.524c.337-.215.642-.462.918-.737.277-.276.548-.557.813-.842v.186c0 .041.002.077.01.103a.695.695 0 0 1 .006.103v.187c0 .24-.011.47-.03.69a2.4 2.4 0 0 1-.123.606 2.48 2.48 0 0 1-.613 1.077c-.3.312-.644.578-1.035.793-.39.217-.813.38-1.262.49-.451.11-.884.166-1.297.166-.25 0-.526-.012-.836-.035a5.594 5.594 0 0 1-.936-.152 5.558 5.558 0 0 1-.925-.316c-.299-.134-1.362-.772-1.655-.757a.72.72 0 0 0-.36.103c-.11.069-.125.066-.255.205l-1.31 1.807c-.174.257-.262.5-.262.731a.92.92 0 0 0 .144.504c.096.151.215.277.352.38.404.357.872.673 1.401.943a9.94 9.94 0 0 0 1.642.67c.566.175 1.134.306 1.704.392.568.088 1.102.132 1.599.132 1.28 0 2.474-.202 3.588-.606a8.263 8.263 0 0 0 2.89-1.766c.812-.773 1.454-1.72 1.923-2.843.47-1.121.703-2.4.703-3.835V39.918a.967.967 0 0 0-.096-.441z" fill="#F7B332"/>
            <g transform="translate(18 68.667)">
                <mask id="uhlmkxz1lf" fill="#fff">
                    <use xlink:href="#bsgqx0pxve"/>
                </mask>
                <path d="M3.716 14.373c.155.129.357.3.6.517.244.216.523.43.835.641.469.314.934.557 1.392.731.46.176.945.224 1.45.263 1.83.142 2.295-1.023 2.373-1.253.08-.23.289-1.26-1-2.094-.301-.195-.638-.325-.98-.448a33.91 33.91 0 0 0-.882-.311c-1.105-.385-2.07-.802-2.897-1.248-.828-.445-1.517-.942-2.07-1.488a5.568 5.568 0 0 1-1.241-1.806C1.019 7.221.883 6.487.883 5.68c0-.855.172-1.63.516-2.33a5.125 5.125 0 0 1 1.477-1.792c.638-.495 1.408-.88 2.31-1.15C6.087.135 7.097 0 8.207 0c.838 0 1.64.094 2.408.283.768.188 1.524.49 2.27.903.312.185.608.375.889.573.28.198.527.388.738.572.211.185.38.359.503.525.126.165.187.307.187.427s-.03.23-.09.332a1.97 1.97 0 0 1-.27.345l-2.036 2.176c-.155.156-.312.235-.467.235a.597.597 0 0 1-.352-.112 4.592 4.592 0 0 1-.353-.275l-.123-.11a11.687 11.687 0 0 0-.613-.483 5.57 5.57 0 0 0-.725-.448 4.253 4.253 0 0 0-.816-.332c-.332-.092-2.276-.645-2.984.693-.1.19-.18.398-.18.656 0 .257.066.48.194.668.13.189.323.364.579.524.258.162.577.314.959.456.381.143.826.296 1.331.463.975.32 1.875.658 2.697 1.013a9.109 9.109 0 0 1 2.133 1.255 5.18 5.18 0 0 1 1.399 1.731c.336.672.503 1.486.503 2.442 0 1.012-.207 1.929-.62 2.753a6.273 6.273 0 0 1-1.704 2.103c-.721.58-1.57 1.028-2.544 1.346-.977.316-2.025.475-3.146.475a8.921 8.921 0 0 1-3.119-.567A12.019 12.019 0 0 1 1.998 19.1a7.487 7.487 0 0 1-.93-.79 53.444 53.444 0 0 1-.6-.621l-.042-.042c-.008-.019-.017-.03-.026-.035a.09.09 0 0 1-.03-.021.086.086 0 0 0-.027-.035.119.119 0 0 1-.027-.02c-.21-.23-.316-.416-.316-.554 0-.157.106-.332.316-.525l2.338-2.21c.193-.138.348-.206.47-.206.082 0 .168.027.26.083.092.055.202.137.332.248" fill="#056A30" mask="url(#uhlmkxz1lf)"/>
            </g>
            <path d="M45.063 85.244c-2.398 0-4.342-1.969-4.342-4.398 0-2.429 1.944-4.398 4.342-4.398 2.398 0 4.341 1.97 4.341 4.398 0 2.43-1.943 4.398-4.341 4.398M53.54 72.04h-2.395a1 1 0 0 0-1 1v.373a8.95 8.95 0 0 0-5.135-1.615c-4.983 0-9.022 4.055-9.022 9.057 0 5.002 4.04 9.057 9.022 9.057a8.95 8.95 0 0 0 5.135-1.615v.297a1 1 0 0 0 1 1h2.395a1 1 0 0 0 1-1V73.04a1 1 0 0 0-1-1M81.377 85.244c-2.398 0-4.342-1.969-4.342-4.398 0-2.429 1.944-4.398 4.342-4.398 2.397 0 4.341 1.97 4.341 4.398 0 2.43-1.944 4.398-4.341 4.398m8.478-13.204H87.46a1 1 0 0 0-1 1v.373a8.95 8.95 0 0 0-5.135-1.615c-4.983 0-9.022 4.055-9.022 9.057 0 5.002 4.04 9.057 9.022 9.057a8.95 8.95 0 0 0 5.135-1.615v.297a1 1 0 0 0 1 1h2.395a1 1 0 0 0 1-1V73.04a1 1 0 0 0-1-1M102.363 85.244c-2.397 0-4.341-1.969-4.341-4.398 0-2.429 1.944-4.398 4.341-4.398 2.398 0 4.342 1.97 4.342 4.398 0 2.43-1.944 4.398-4.342 4.398m8.912-22.45h-2.829a1 1 0 0 0-1 1.001v9.618a8.95 8.95 0 0 0-5.134-1.615c-4.983 0-9.022 4.055-9.022 9.057 0 5.002 4.039 9.057 9.022 9.057a8.95 8.95 0 0 0 5.134-1.615v.297a1 1 0 0 0 1 1h2.83a1 1 0 0 0 1-1V63.795a1 1 0 0 0-1-1" fill="#056A30"/>
            <path d="M132.008 77.117a3.565 3.565 0 1 0 0-7.13 3.565 3.565 0 0 0 0 7.13M141.45 77.043a1.95 1.95 0 0 0 1.948-1.95 1.16 1.16 0 0 1 2.318 0 1.949 1.949 0 1 0 3.898 0 5.062 5.062 0 0 0-5.057-5.056 5.062 5.062 0 0 0-5.057 5.057 1.95 1.95 0 0 0 1.95 1.949" fill="#82BF25"/>
            <g transform="translate(118.55 77.197)">
                <mask id="518pyskzyh" fill="#fff">
                    <use xlink:href="#scpy9o7p7g"/>
                </mask>
                <path d="m36.191 5.006-.175.144-.008-.007a1.987 1.987 0 0 0-.17-.153c-.11-.086-.363-.312-.363-.543a.55.55 0 0 1 1.097 0c0 .222-.266.465-.38.559m6.776 4.335a23.364 23.364 0 0 1-3.753-1.847c.81-.874 1.255-1.932 1.255-3.047A4.452 4.452 0 0 0 36.023 0a4.452 4.452 0 0 0-4.446 4.447c0 1.14.45 2.209 1.277 3.076a21.921 21.921 0 0 1-11.738 3.382c-6.87 0-13.298-3.168-17.634-8.694A1.95 1.95 0 0 0 .416 4.618c5.08 6.473 12.625 10.185 20.7 10.185 5.388 0 10.517-1.63 14.927-4.72a27.26 27.26 0 0 0 5.522 2.896 1.946 1.946 0 0 0 2.52-1.118 1.95 1.95 0 0 0-1.117-2.52" fill="#82BF25" mask="url(#518pyskzyh)"/>
            </g>
        </g>
    </g>
</svg>
