<svg width="180" height="125" viewBox="0 0 180 125" xmlns="http://www.w3.org/2000/svg" xmlns:xlink="http://www.w3.org/1999/xlink">
    <defs>
        <path id="0wkt0szpka" d="M0 0h17.549v35.808H0z"/>
    </defs>
    <g fill="none" fill-rule="evenodd">
        <path d="M0 0h180v125H0z"/>
        <path d="M74.82 54.29h6.84c-.259 1.535-.501 3-.755 4.465-.763 4.402-1.54 8.8-2.284 13.206-.093.555-.061 1.143-.007 1.708.127 1.321.91 2.07 2.381 2.05.924-.012 1.028.363 1.04 1.12.019 1.27.086 2.548.244 3.809.097.77-.107.974-.87 1.008-2.857.129-5.267-.733-7.086-3.061-3.536 3.042-7.715 3.687-12.079 3.206-5.138-.567-8.335-4.756-7.509-9.829.923-5.664 1.908-11.318 2.895-16.971.049-.278.365-.722.566-.727 2.073-.055 4.147-.034 6.379-.034l-.811 4.743c-.756 4.405-1.538 8.807-2.257 13.218-.314 1.931 1.295 3.678 3.404 3.776 3.179.147 6.536-1.274 7.224-5.809.8-5.272 1.771-10.517 2.686-15.879M31.56 81.592h-6.85c.246-1.513.472-2.977.726-4.438.77-4.438 1.568-8.87 2.31-13.314.1-.609.028-1.28-.11-1.89-.268-1.186-.929-1.657-2.151-1.686-.33-.008-.66-.001-1.052-.001-.15-1.969-.291-3.856-.433-5.738 3.024-.667 4.683-.099 8.102 2.78a12.503 12.503 0 0 1 5.457-2.757c3.049-.695 6.085-.924 9.071.268 3.69 1.473 5.607 5.036 5.014 8.886-.884 5.735-1.925 11.447-2.878 17.172-.084.508-.21.787-.793.78-2.011-.024-4.022-.01-6.177-.01.332-2.015.64-3.946.97-5.873.684-4.012 1.398-8.018 2.061-12.032.254-1.538-.582-2.893-2.131-3.46-2.45-.898-6.914.104-8.042 3.764-.264.855-.423 1.746-.577 2.63-.825 4.733-1.634 9.467-2.446 14.201-.034.197-.04.399-.07.718M126.007 42.153l-1.053 5.95c-2.133-.335-4.08-.116-5.869.99-1.854 1.147-2.555 2.923-2.733 5.104h7.554l-1.026 6.038h-7.605l-3.7 21.362h-6.81c.23-1.441.44-2.84.68-4.232.85-4.932 1.71-9.861 2.565-14.792.616-3.55.99-7.162 1.9-10.633 1.294-4.943 4.607-8.132 9.607-9.414 2.083-.533 4.215-.668 6.49-.373" fill="#71C8E7"/>
        <g transform="translate(137.807 46.192)">
            <mask id="5i7p8bhz4b" fill="#fff">
                <use xlink:href="#0wkt0szpka"/>
            </mask>
            <path d="M15.491 27.969c.095 1.505.21 3.135.286 4.767.01.186-.145.45-.306.563-3.337 2.34-6.964 3.313-10.865 1.742C1.689 33.867.188 31.533.02 28.338c-.162-3.084.667-6.03 1.14-9.024.646-4.085 1.4-8.154 2.105-12.23.408-2.36.813-4.72 1.22-7.084h6.84L9.95 8.016h7.6l-1.022 6.017H8.961c-.213 1.066-.436 2.088-.618 3.118-.477 2.691-.964 5.382-1.381 8.083-.116.75-.133 1.564.03 2.298.417 1.864 1.931 2.729 4.057 2.17 1.485-.389 2.882-1.11 4.442-1.733" fill="#71C8E7" mask="url(#5i7p8bhz4b)"/>
        </g>
        <path d="M85.87 81.64c.984-5.667 1.964-11.249 2.911-16.835.127-.749.181-1.534.108-2.287-.17-1.762-.74-2.226-2.53-2.252-.196-.003-.393 0-.702 0l-.471-5.796c3.285-.562 5.94.339 8.025 2.825 3.842-3.14 8.83-3.583 11.846-3.143-.249 1.5-.473 3.007-.754 4.502-.27 1.438-.294 1.386-1.743 1.328-3.11-.123-6.518 1.567-7.077 5.513-.728 5.146-1.712 10.257-2.624 15.377-.051.288-.448.728-.695.735-2.076.059-4.155.034-6.295.034M135.154 54.236l-4.725 27.372h-6.83c.744-4.38 1.473-8.715 2.22-13.047.707-4.107 1.457-8.207 2.139-12.318.332-1.998.281-2.007 2.255-2.007h4.941M136.457 46.949c-.01 2.028-1.532 3.588-3.511 3.6-1.834.013-3.583-1.7-3.512-3.577.085-2.258 1.884-3.571 3.636-3.494 1.944.087 3.398 1.507 3.387 3.47" fill="#71C8E7"/>
    </g>
</svg>
