<?xml version="1.0" encoding="UTF-8"?>
<svg width="35px" height="25px" viewBox="0 0 35 25" version="1.1" xmlns="http://www.w3.org/2000/svg" xmlns:xlink="http://www.w3.org/1999/xlink">
    <title>icon/kakao</title>
    <defs>
        <polygon id="path-1" points="0 0 27.2125102 0 27.2125102 25 0 25"></polygon>
        <path d="M0.617026195,1.34298461 L2.01756729,1.34298461 C2.01756729,1.34298461 2.02634709,5.18983884 2.01854283,6.08602906 L2.01854283,6.08602906 C2.02081907,6.73996176 3.47566487,6.74906674 3.4737138,6.09578439 L3.4737138,6.09578439 L3.48021736,1.393062 C3.48021736,1.393062 3.94912385,1.39631378 4.87360454,1.39696414 L4.87360454,1.39696414 C5.74410571,1.39696414 5.74475606,0.027965297 4.87458008,0.0269897634 L4.87458008,0.0269897634 C3.89351844,0.0269897634 0.615075128,0 0.615075128,0 L0.615075128,0 C-0.206649355,0.00130071149 -0.204047932,1.34298461 0.617026195,1.34298461 L0.617026195,1.34298461 Z" id="path-3"></path>
        <path d="M2.04685193,0.420454989 C1.70248856,1.17942014 0.457707668,4.76320547 0.0447317702,5.71402557 L0.0447317702,5.71402557 C-0.254431872,6.40145159 1.03392286,6.96140789 1.33276132,6.27463222 L1.33276132,6.27463222 L1.61306465,5.29487129 L4.17611664,5.29487129 C4.17611664,5.29487129 4.08766826,5.334543 4.42812949,6.23300946 L4.42812949,6.23300946 C4.70355515,6.959782 6.034183,6.45608148 5.75843216,5.72865858 L5.75843216,5.72865858 C5.36496694,4.69004045 4.00409754,0.950169743 3.75533647,0.420454989 L3.75533647,0.420454989 C3.64119904,0.175270873 3.23049939,0 2.8334572,0 L2.8334572,0 C2.5043772,0 2.18375181,0.119990635 2.04685193,0.420454989 L2.04685193,0.420454989 Z M2.92027969,1.56410557 L3.69973105,4.00586621 L2.07546758,4.00586621 L2.92027969,1.56410557 Z" id="path-5"></path>
        <path d="M0,0.643527009 C0.00292680986,1.86164332 0.0071541222,5.78719059 0.0071541222,5.78719059 L0.0071541222,5.78719059 C0.0071541222,5.78719059 -0.105032244,6.56761749 0.563533462,6.56761749 L0.563533462,6.56761749 C1.23242435,6.56761749 2.71718651,6.5601384 3.37534652,6.5601384 L3.37534652,6.5601384 C4.03318136,6.5601384 4.02992958,5.15992248 3.37176957,5.15992248 L3.37176957,5.15992248 C2.71328438,5.15992248 1.51240249,5.15309374 1.51240249,5.15309374 L1.51240249,5.15309374 C1.51240249,5.15309374 1.51825569,1.52183244 1.51597945,0.639950053 L1.51597945,0.639950053 C1.51500392,0.213641862 1.13714723,0 0.758640185,0 L0.758640185,0 C0.37883243,0 -0.000324968859,0.214617396 0,0.643527009 L0,0.643527009 Z" id="path-7"></path>
        <path d="M0.0165865706,0.446794397 C0.0312195748,0.980736463 -0.000322678803,5.81092858 0,6.16894942 L0,6.16894942 C0.000327676942,6.73378338 1.43826423,6.73248267 1.43793905,6.16797388 L1.43793905,6.16797388 C1.43761387,5.51209011 1.43793905,4.2676344 1.43793905,4.2676344 L1.43793905,4.2676344 L1.86034511,3.92912423 L3.70637989,6.44827721 C4.07968408,6.94059651 5.25422656,6.05090985 4.88124754,5.55859055 L4.88124754,5.55859055 L2.92042497,2.97635307 C2.92042497,2.97635307 4.251378,1.5371158 4.77588991,1.0155305 L4.77588991,1.0155305 C5.08220747,0.711814362 4.13431397,-0.242907871 3.82832159,0.0617837957 L3.82832159,0.0617837957 C3.53143419,0.35606977 1.44736921,2.44306135 1.44736921,2.44306135 L1.44736921,2.44306135 C1.44736921,2.44306135 1.46590435,1.13259453 1.44639368,0.40809823 L1.44639368,0.40809823 C1.43891458,0.13299775 1.10170513,0 0.756691408,0 L0.756691408,0 C0.387289345,0 0.00910747949,0.152183244 0.0165865706,0.446794397 L0.0165865706,0.446794397 Z" id="path-9"></path>
    </defs>
    <g id="icon/kakao" stroke="none" stroke-width="1" fill="none" fill-rule="evenodd">
        <rect id="Rectangle" x="0" y="0" width="35" height="25"></rect>
        <g id="Group-25" transform="translate(4, 0)">
            <g id="Group-6">
                <g id="Group-3">
                    <mask id="mask-2" fill="white">
                        <use xlink:href="#path-1"></use>
                    </mask>
                    <g id="Clip-2"></g>
                    <path d="M13.6063527,-3.25177872e-05 C6.09181722,-3.25177872e-05 -6.50355745e-05,4.81552659 -6.50355745e-05,10.7565263 C-6.50355745e-05,14.6232164 2.58087174,18.0125454 6.45504091,19.9086575 C6.17051027,20.9703633 5.42422705,23.7574628 5.27529559,24.3531887 C5.09026938,25.0929684 5.5455184,25.0835382 5.84468204,24.8851797 C6.07913529,24.7290943 9.57284635,22.3523692 11.080371,21.3270834 C11.8991688,21.4486999 12.7433306,21.51276 13.6063527,21.51276 C21.1208881,21.51276 27.2127704,16.697526 27.2127704,10.7565263 C27.2127704,4.81552659 21.1208881,-3.25177872e-05 13.6063527,-3.25177872e-05" id="Fill-1" fill="#381E1F" mask="url(#mask-2)"></path>
                </g>
                <path d="M4.1140854,8.77625811 L5.5146265,8.77625811 C5.5146265,8.77625811 5.5234063,12.6231123 5.51592721,13.5193026 C5.51787828,14.1735604 6.97272408,14.1823402 6.97077301,13.5287327 L6.97727657,8.82633551 C6.97727657,8.82633551 7.44618306,8.82958728 8.37066375,8.83023764 C9.2414901,8.83023764 9.24214045,7.4612388 8.37163929,7.46026326 C7.39057765,7.46026326 4.11213434,7.4332735 4.11213434,7.4332735 C3.29040985,7.43457421 3.29301128,8.77625811 4.1140854,8.77625811" id="Fill-4" fill="#F9E000"></path>
            </g>
            <g id="Group-9" transform="translate(3.4971, 7.4332)">
                <mask id="mask-4" fill="white">
                    <use xlink:href="#path-3"></use>
                </mask>
                <g id="Clip-8"></g>
                <polygon id="Fill-7" fill="#F9E000" mask="url(#mask-4)" points="-0.206649355 6.74906674 5.74508124 6.74906674 5.74508124 0 -0.206649355 0"></polygon>
            </g>
            <path d="M9.94380926,7.88140113 C9.59912072,8.64036628 8.35433982,12.2241516 7.94136393,13.1749717 C7.64220028,13.8623977 8.93088019,14.422354 9.22971866,13.7355784 L9.51002198,12.7554923 L12.0727488,12.7554923 C12.0727488,12.7554923 11.9843004,12.7954891 12.3247616,13.6939556 C12.6005125,14.420403 13.9311403,13.9170276 13.6550643,13.1896047 C13.2615991,12.1506614 11.9007297,8.41111588 11.6522938,7.88140113 C11.5378312,7.63621701 11.1274567,7.46094614 10.7300894,7.46094614 C10.4010094,7.46094614 10.080384,7.58093677 9.94380926,7.88140113 L9.94380926,7.88140113 Z M10.817237,9.02537688 L11.5963632,11.4668123 L9.97209974,11.4668123 L10.817237,9.02537688 Z" id="Fill-10" fill="#F9E000"></path>
            <g id="Group-14" transform="translate(7.8968, 7.4609)">
                <mask id="mask-6" fill="white">
                    <use xlink:href="#path-5"></use>
                </mask>
                <g id="Clip-13"></g>
                <polygon id="Fill-12" fill="#F9E000" mask="url(#mask-6)" points="-0.25475705 6.96140789 6.034183 6.96140789 6.034183 0 -0.25475705 0"></polygon>
            </g>
            <path d="M14.1457252,8.10557875 C14.1483266,9.32369506 14.1525539,13.2492423 14.1525539,13.2492423 C14.1525539,13.2492423 14.0403676,14.0296692 14.7089333,14.0296692 C15.3781493,14.0296692 16.8625863,14.0221901 17.5210715,14.0221901 C18.1789064,14.0221901 18.1756546,12.6222994 17.5174946,12.6222994 C16.8590094,12.6222994 15.6578023,12.6151455 15.6578023,12.6151455 C15.6578023,12.6151455 15.6636555,8.98388418 15.6617045,8.10200179 C15.6604037,7.6756936 15.2825471,7.46205174 14.9043652,7.46205174 C14.5245574,7.46205174 14.1450749,7.67699432 14.1457252,8.10557875" id="Fill-15" fill="#F9E000"></path>
            <g id="Group-19" transform="translate(14.1456, 7.4622)">
                <mask id="mask-8" fill="white">
                    <use xlink:href="#path-7"></use>
                </mask>
                <g id="Clip-18"></g>
                <polygon id="Fill-17" fill="#F9E000" mask="url(#mask-8)" points="-0.105357422 6.56729231 4.03350654 6.56729231 4.03350654 0 -0.105357422 0"></polygon>
            </g>
            <path d="M18.3546,7.91187029 C18.369233,8.44613754 18.3373655,13.2760045 18.3376882,13.6340253 C18.3380159,14.1988593 19.7759524,14.1975586 19.7756273,13.6330498 C19.7753021,12.977166 19.7756273,11.7327103 19.7756273,11.7327103 L20.1980333,11.3942001 L22.0440681,13.9133531 C22.4176975,14.4056724 23.5919148,13.5159857 23.2189358,13.0239916 L21.2584384,10.441429 C21.2584384,10.441429 22.5890662,9.00251688 23.1135781,8.48093157 C23.4198957,8.17689026 22.4723274,7.22216803 22.1660098,7.52685969 C21.8694476,7.82114567 19.7847322,9.90813725 19.7847322,9.90813725 C19.7847322,9.90813725 19.8035926,8.59734525 19.7840819,7.87317413 C19.776928,7.59807365 19.4393933,7.4650759 19.0940544,7.4650759 C18.7249776,7.4650759 18.3471209,7.61758432 18.3546,7.91187029" id="Fill-20" fill="#F9E000"></path>
            <g id="Group-24" transform="translate(18.3378, 7.4651)">
                <mask id="mask-10" fill="white">
                    <use xlink:href="#path-9"></use>
                </mask>
                <g id="Clip-23"></g>
                <polygon id="Fill-22" fill="#F9E000" mask="url(#mask-10)" points="-0.000322678803 6.94059651 5.25422656 6.94059651 5.25422656 -0.242907871 -0.000322678803 -0.242907871"></polygon>
            </g>
        </g>
    </g>
</svg>