<svg width="25" height="27" viewBox="0 0 25 27" xmlns="http://www.w3.org/2000/svg">
    <path d="M20.252 16.056h-1.66v-3.747c0-.862-.504-1.326-1.276-1.326-.862 0-1.416.527-1.416 1.596v3.477H14.24V6.892H15.9v3.447c.399-.605 1.043-.901 1.918-.901.709 0 1.288.231 1.738.708.464.476.696 1.12.696 1.957v3.953zM8.31 14.492c1.225 0 2.273-.733 2.59-1.867h1.81c-.442 2.181-2.14 3.61-4.4 3.61-2.627 0-4.71-1.959-4.71-4.686s2.083-4.687 4.71-4.687c2.283 0 3.993 1.459 4.414 3.677h-1.807c-.275-1.206-1.359-1.958-2.607-1.958-1.767 0-2.942 1.26-2.942 2.968s1.336 2.943 2.942 2.943zM12.5 0C5.596 0 0 5.176 0 11.562c0 4.716 1.975 6.968 4.68 9.02l.013.006v5.534c0 .262.298.411.508.255l4.74-3.52.102.044c.794.146 1.616.223 2.457.223 6.904 0 12.5-5.176 12.5-11.562C25 5.176 19.404 0 12.5 0z" fill="#020303" fill-rule="evenodd"/>
</svg>
