<?xml version="1.0" encoding="UTF-8"?>
<svg width="35px" height="25px" viewBox="0 0 35 25" version="1.1" xmlns="http://www.w3.org/2000/svg" xmlns:xlink="http://www.w3.org/1999/xlink">
    <title>icon/youtube</title>
    <defs>
        <polygon id="path-1" points="0 0 29.9957474 0 29.9957474 21 0 21"></polygon>
    </defs>
    <g id="icon/youtube" stroke="none" stroke-width="1" fill="none" fill-rule="evenodd">
        <rect id="Rectangle-Copy-4" x="0" y="0" width="35" height="25"></rect>
        <g id="Group-6" transform="translate(3, 2)">
            <g id="Group-3">
                <mask id="mask-2" fill="white">
                    <use xlink:href="#path-1"></use>
                </mask>
                <g id="Clip-2"></g>
                <path d="M12.0145913,5.99867767 L12.0145913,14.9648715 C14.6194508,13.4661437 17.1998927,11.9813004 19.8066673,10.4814554 C17.1912747,8.97682269 14.6095561,7.49150059 12.0145913,5.99867767 M15.7616502,21 C14.0588043,20.9768592 12.3548413,20.9837216 10.6532721,20.9224383 C8.73992443,20.853335 6.82705554,20.7444933 4.91721891,20.6089998 C4.10521516,20.5513871 3.28076324,20.4664842 2.53913954,20.0673448 C1.43444419,19.4727052 0.757614815,18.5740431 0.545038363,17.3207676 C0.262560645,15.6559046 0.0638686908,13.9808277 0.0242898919,12.2947389 C-0.0108203329,10.7990434 -0.0191191133,9.2971237 0.077274413,7.80541792 C0.172391204,6.33142684 0.369008463,4.85967006 0.604885337,3.40052103 C0.787458506,2.27045057 1.5016324,1.46961826 2.48838931,0.907535475 C3.10632926,0.555475675 3.79161702,0.46658297 4.47802191,0.389340475 C6.38275161,0.175168104 8.29562049,0.0869137656 10.211362,0.0623366083 C12.4533095,0.0337696526 14.6955761,-0.00660710594 16.9375236,0.000893714814 C18.586587,0.0064794324 20.2374059,0.0452602716 21.8837563,0.134950937 C23.3460971,0.214746902 24.811949,0.324865335 26.2607246,0.53026015 C28.0301203,0.781298258 29.1708834,2.02787083 29.4697991,3.78194574 C29.9638957,6.68077358 30.0697052,9.59971 29.9517668,12.5287007 C29.8831422,14.2288336 29.7227523,15.9251362 29.3773954,17.5944678 C29.1091214,18.8919502 28.3082891,19.7880589 27.0776757,20.2352355 C26.4878239,20.449727 25.840519,20.5620797 25.2115672,20.6034141 C23.0736737,20.7435358 20.932748,20.8471109 18.7918222,20.9324926 C17.7833608,20.9727098 16.7718671,20.9393551 15.7618098,20.9393551 C15.7618098,20.9596232 15.7618098,20.9798914 15.7616502,21" id="Fill-1" fill="#FF0000" mask="url(#mask-2)"></path>
            </g>
            <path d="M12.4090909,5.99867767 C15.0040557,7.49150059 17.5857744,8.97682269 20.2011669,10.4814554 C17.5943923,11.9813004 15.0139504,13.4661437 12.4090909,14.9648715 L12.4090909,5.99867767 Z" id="Fill-4" fill="#FFFFFF"></path>
        </g>
    </g>
</svg>