<?xml version="1.0" encoding="UTF-8"?>
<svg width="35px" height="25px" viewBox="0 0 35 25" version="1.1" xmlns="http://www.w3.org/2000/svg" xmlns:xlink="http://www.w3.org/1999/xlink">
    <title>icon/blog</title>
    <defs>
        <polygon id="path-1" points="0 0 29.7175793 0 29.7175793 25 0 25"></polygon>
    </defs>
    <g id="icon/blog" stroke="none" stroke-width="1" fill="none" fill-rule="evenodd">
        <rect id="Rectangle-Copy-2" x="0" y="0" width="35" height="25"></rect>
        <g id="Group-12" transform="translate(3, 0)">
            <g id="Group-3">
                <mask id="mask-2" fill="white">
                    <use xlink:href="#path-1"></use>
                </mask>
                <g id="Clip-2"></g>
                <path d="M25.0219801,-9.17109223e-05 L4.6918085,-9.17109223e-05 C2.09730651,-9.17109223e-05 -0.00012228123,2.11170513 -0.00012228123,4.71079266 L-0.00012228123,15.8869914 C-0.00012228123,18.4866903 2.09730651,20.5948187 4.6918085,20.5948187 L11.6954659,20.5948187 L14.086064,24.4848903 C14.086064,24.4848903 14.1108259,24.5331914 14.1618783,24.5970833 C14.3028075,24.8376717 14.5605151,25 14.8585756,25 C15.1535791,25 15.4082298,24.8376717 15.5491589,24.6028917 C15.6093824,24.5331914 15.6307816,24.4848903 15.6307816,24.4848903 L18.0180169,20.5948187 L25.0219801,20.5948187 C27.6140364,20.5948187 29.7175793,18.4866903 29.7175793,15.8869914 L29.7175793,4.71079266 C29.7175793,2.11170513 27.6140364,-9.17109223e-05 25.0219801,-9.17109223e-05" id="Fill-1" fill="#31B14A" mask="url(#mask-2)"></path>
            </g>
            <path d="M6.19825211,12.1862416 C5.55230152,12.1862416 5.03077207,11.6637951 5.03077207,11.0196787 C5.03077207,10.3715882 5.55230152,9.85097587 6.19825211,9.85097587 C6.8435913,9.85097587 7.36634356,10.3715882 7.36634356,11.0196787 C7.36634356,11.6637951 6.8435913,12.1862416 6.19825211,12.1862416 M6.60025165,8.18764544 C6.60025165,8.18764544 5.78799859,8.18764544 5.05064277,8.90696477 L5.05064277,6.02021064 L3.2341551,6.02021064 L3.2341551,13.5988956 L5.07081917,13.5988956 L5.07081917,13.0055259 C5.07081917,13.0055259 5.50430613,13.7905714 6.60025165,13.7905714 C6.60025165,13.7905714 9.16234912,13.6927464 9.16234912,10.9563982 C9.16234912,10.9563982 9.06758117,8.18764544 6.60025165,8.18764544" id="Fill-4" fill="#FFFFFF"></path>
            <path d="M9.74844305,5.84586818 L9.74844305,7.60366086 C9.74844305,7.60366086 10.5759813,7.56605938 10.5759813,9.11413975 L10.5759813,13.5988038 L12.3310226,13.5988038 L12.3310226,8.69807786 C12.3310226,8.69807786 12.4065313,5.84586818 9.74844305,5.84586818" id="Fill-6" fill="#FFFFFF"></path>
            <path d="M16.6196088,12.1862416 C15.9724354,12.1862416 15.451823,11.6637951 15.451823,11.0196787 C15.451823,10.3715882 15.9724354,9.85097587 16.6196088,9.85097587 C17.264948,9.85097587 17.7877002,10.3715882 17.7877002,11.0196787 C17.7877002,11.6637951 17.264948,12.1862416 16.6196088,12.1862416 M16.6189974,8.2139359 C16.6189974,8.2139359 13.6114905,8.2139359 13.6114905,11.0196787 C13.6114905,11.0196787 13.5161112,13.7905714 16.6189974,13.7905714 C16.6189974,13.7905714 19.694676,13.7850687 19.694676,11.0196787 C19.694676,11.0196787 19.7961694,8.2139359 16.6189974,8.2139359" id="Fill-8" fill="#FFFFFF"></path>
            <path d="M23.6269041,12.1862416 C22.9818706,12.1862416 22.4575898,11.6637951 22.4575898,11.0196787 C22.4575898,10.3715882 22.9818706,9.85097587 23.6269041,9.85097587 C24.272549,9.85097587 24.7943841,10.3715882 24.7943841,11.0196787 C24.7943841,11.6637951 24.272549,12.1862416 23.6269041,12.1862416 L23.6269041,12.1862416 Z M24.7136785,8.39124369 L24.7136785,8.90696477 C24.7136785,8.90696477 24.1906205,8.2139359 23.1857745,8.2139359 C23.1857745,8.2139359 20.6132703,8.10235428 20.6132703,10.999808 C20.6132703,10.999808 20.5854642,13.6997776 23.1148514,13.6997776 C23.1148514,13.6997776 24.1465993,13.7392133 24.7136785,13.0055259 L24.7136785,13.4304532 C24.7136785,13.4304532 24.8432966,14.7602615 23.5544524,14.7602615 L23.1148514,14.7602615 L23.1148514,16.3710221 L23.8237769,16.3710221 C23.8237769,16.3710221 26.4824765,16.3997471 26.4824765,13.5307238 L26.4824765,8.39124369 L24.7136785,8.39124369 Z" id="Fill-10" fill="#FFFFFF"></path>
        </g>
    </g>
</svg>