<svg width="30" height="21" viewBox="0 0 30 21" xmlns="http://www.w3.org/2000/svg" xmlns:xlink="http://www.w3.org/1999/xlink">
    <defs>
        <path id="zd5f7nyy8a" d="M0 0h24.963v21H0z"/>
    </defs>
    <g fill="none" fill-rule="evenodd">
        <path d="M0 0h29.4v21H0z"/>
        <g transform="translate(2.52)">
            <mask id="yvsw25llfb" fill="#fff">
                <use xlink:href="#zd5f7nyy8a"/>
            </mask>
            <path d="M21.018 0H3.941A3.949 3.949 0 0 0 0 3.957v9.388A3.946 3.946 0 0 0 3.94 17.3h5.883l2.008 3.267s.021.04.064.095a.677.677 0 0 0 .585.338.678.678 0 0 0 .58-.334c.05-.058.069-.099.069-.099l2.005-3.267h5.883a3.95 3.95 0 0 0 3.945-3.955V3.957A3.953 3.953 0 0 0 21.018 0" fill="#FFF" mask="url(#yvsw25llfb)"/>
        </g>
        <path d="M7.727 10.236a.98.98 0 1 1 0-1.961.98.98 0 1 1 0 1.961m.337-3.358s-.682 0-1.301.604V5.057H5.237v6.366h1.542v-.498s.365.66 1.285.66c0 0 2.152-.083 2.152-2.382 0 0-.08-2.325-2.152-2.325M10.709 4.91v1.477s.695-.032.695 1.269v3.767h1.474V7.306s.063-2.395-2.17-2.395M16.48 10.236a.98.98 0 0 1-.98-.98.98.98 0 1 1 .98.98m0-3.336s-2.526 0-2.526 2.357c0 0-.08 2.327 2.526 2.327 0 0 2.584-.005 2.584-2.327 0 0 .085-2.357-2.584-2.357M22.367 10.236a.982.982 0 1 1-.002-1.963.982.982 0 0 1 .002 1.963zm.912-3.187v.433S22.84 6.9 21.996 6.9c0 0-2.16-.094-2.16 2.34 0 0-.024 2.268 2.1 2.268 0 0 .867.033 1.343-.583v.357s.11 1.117-.973 1.117h-.37v1.353h.596s2.233.024 2.233-2.386V7.049H23.28z" fill="#31B14A"/>
    </g>
</svg>
