<svg width="22" height="22" viewBox="0 0 22 22" xmlns="http://www.w3.org/2000/svg">
    <g fill="none" fill-rule="evenodd">
        <path d="M11.092 0C6.11-.02 1.723 3.294.41 8.014A11.016 11.016 0 0 0 7.402 21.4c1.563.546 3.172.71 4.816.53a10.845 10.845 0 0 0 3.48-.984c.488-.23.987-.284 1.515-.149 1.219.314 2.44.612 3.66.918.577.145 1-.278.856-.852l-.937-3.74c-.123-.488-.059-.955.155-1.405.4-.845.71-1.723.867-2.644.66-3.904-.397-7.27-3.238-10.04C17.062 1.56 15.239.632 13.162.211A11.276 11.276 0 0 0 11.092 0" fill="#FFF"/>
        <circle fill="#1999E2" cx="5.5" cy="11" r="1.375"/>
        <circle fill="#1999E2" cx="11" cy="11" r="1.375"/>
        <circle fill="#1999E2" cx="16.5" cy="11" r="1.375"/>
    </g>
</svg>
