<svg width="180" height="30" viewBox="0 0 180 30" xmlns="http://www.w3.org/2000/svg" xmlns:xlink="http://www.w3.org/1999/xlink">
    <defs>
        <path id="9rvq4sa6ga" d="M0 0h17.129v20.918H0z"/>
        <path id="23shj0z99c" d="M0 0h17.016v21.62H0z"/>
    </defs>
    <g fill="none" fill-rule="evenodd">
        <g transform="translate(0 1.365)">
            <mask id="zn5bbzzvkb" fill="#fff">
                <use xlink:href="#9rvq4sa6ga"/>
            </mask>
            <path d="M5.214 12.15h4.14c1.781 0 2.763.842 2.763 2.37 0 1.881-1.315 2.96-3.607 2.96H4.373l.841-5.33zm5.404-8.712c1.667 0 2.623.833 2.623 2.285 0 1.896-1.285 3.073-3.354 3.073H5.75l.841-5.358h4.027zm3.141 7.176c2.119-1.006 3.37-3.013 3.37-5.452C17.129 2.026 14.905 0 11.46 0H3.32L0 20.918h8.37c4.726 0 7.662-2.451 7.662-6.398 0-1.816-.803-3.188-2.273-3.906z" fill="#020303" mask="url(#zn5bbzzvkb)"/>
        </g>
        <path d="m28.032 7.986-.17-.04a6.929 6.929 0 0 0-1.561-.173c-1.553 0-2.924.683-3.794 1.86l.085-1.607H19.17l-2.252 14.257h3.668l1.12-7.015c.388-2.453 1.98-3.86 4.369-3.86h1.396l.56-3.422zM32.23 19.745c-1.202 0-1.92-.54-1.92-1.443 0-1.308 1.02-2.018 3.117-2.174l2.686-.233-.077.526c-.297 2.05-1.755 3.324-3.805 3.324m2.248-12.113c-3.715 0-6.129 1.861-6.621 5.106l-.033.215h3.331l.024-.16c.21-1.481 1.18-2.2 2.962-2.2.945 0 1.625.235 2.022.7.355.418.473 1.017.348 1.793l-.014.153-3.972.352c-3.772.288-5.934 2.138-5.934 5.076 0 2.345 1.798 3.981 4.374 3.981 1.882 0 3.584-.751 4.535-1.96l-.065 1.595h3.25l1.373-8.617c.274-1.737-.06-3.217-.968-4.279-.982-1.148-2.577-1.755-4.612-1.755M50.948 7.604c-1.731 0-3.005.59-4.17 1.958V8.026h-3.382l-2.25 14.257h3.667l1.204-7.605c.381-2.364 1.697-3.72 3.61-3.72.832 0 1.462.248 1.872.735.489.581.643 1.495.444 2.646l-1.242 7.944h3.667l1.374-8.674c.264-1.702-.123-3.263-1.09-4.392-.892-1.04-2.207-1.613-3.704-1.613" fill="#020303"/>
        <g transform="translate(57.084 1)">
            <mask id="93n1nsldad" fill="#fff">
                <use xlink:href="#23shj0z99c"/>
            </mask>
            <path d="M11.158 13.255c0 2.842-1.918 5.068-4.366 5.068-1.9 0-3.129-1.316-3.129-3.353 0-2.827 1.917-5.04 4.365-5.04 1.96 0 3.13 1.243 3.13 3.325zM13.348 0l-1.372 8.8c-.852-1.316-2.555-2.14-4.51-2.14C3.14 6.66 0 10.237 0 15.167c0 3.8 2.388 6.454 5.808 6.454 1.862 0 3.373-.691 4.502-2.057l-.09 1.72h3.42L17.016 0h-3.668z" fill="#020303" mask="url(#93n1nsldad)"/>
        </g>
        <path d="m79.446 17.876-1.84-9.85h-3.705l3.155 14.41-.644 1.262c-.824 1.618-1.827 1.836-2.7 1.836h-2.126l-.502 3.105.161.046c.772.215 1.565.315 2.495.315 2.918 0 4.415-1.988 5.392-3.722l9.455-17.252h-4l-5.14 9.85zM100.175 14.152l3.323-6.618c.123-.26.248-.544.36-.809.04.291.091.575.13.763l1.223 6.664h-5.036zm2.476-12.787-10.73 20.919h4.187l2.417-4.806h7.288l.871 4.806h3.897L106.49 1.365h-3.838zM118.73 10.958c1.58 0 2.547.838 2.651 2.299l.012.174h3.713l-.006-.194c-.116-3.492-2.424-5.577-6.174-5.577-4.53 0-7.944 3.681-7.944 8.563 0 3.946 2.484 6.398 6.483 6.398 3.431 0 6.227-2.184 7.122-5.564l.062-.235h-3.746l-.045.123c-.534 1.468-1.77 2.379-3.225 2.379-1.818 0-2.903-1.234-2.903-3.298 0-2.89 1.719-5.068 4-5.068M135.194 8.026h-2.643l.674-4.3h-3.667l-.675 4.3h-2.64l-.51 3.129h2.642l-1.743 11.128h3.668l1.742-11.128h2.641z" fill="#020303"/>
        <path d="M136.958 22.283c1.358 0 2.548-1.19 2.548-2.548 0-1.084-.817-1.902-1.902-1.902-1.333 0-2.547 1.215-2.547 2.549 0 1.084.817 1.901 1.901 1.901" fill="#D80F16"/>
        <path d="M149.011 18.962c-2.016 0-3.268-1.317-3.268-3.438 0-2.733 1.982-4.956 4.421-4.956 2 0 3.241 1.328 3.241 3.466 0 2.717-1.971 4.928-4.394 4.928m1.321-11.663c-4.675 0-8.337 3.724-8.337 8.477 0 3.878 2.74 6.483 6.82 6.483 4.675 0 8.337-3.724 8.337-8.478 0-3.877-2.74-6.482-6.82-6.482M171.207 8.855c-.89-1.04-2.206-1.612-3.703-1.612-1.73 0-3.004.59-4.169 1.958V7.664h-3.382L157.7 21.922h3.668l1.205-7.605c.38-2.365 1.696-3.72 3.61-3.72.83 0 1.46.247 1.871.735.49.581.643 1.495.444 2.646l-1.242 7.944h3.667l1.374-8.674c.265-1.703-.123-3.263-1.09-4.393" fill="#020303"/>
        <path fill="#D80F16" d="m136.076 15.623-.115.775H139.627l.337-2.17 1.658-10.502h-3.667z"/>
    </g>
</svg>
