<svg width="60" height="60" viewBox="0 0 60 60" xmlns="http://www.w3.org/2000/svg">
    <g fill="none" fill-rule="evenodd">
        <path opacity=".5" d="M0 0h60v60H0z"/>
        <path d="M39.946 14.541 54.46 29.058l3.23-3.218-14.524-14.518-3.22 3.22m-23.12-3.229c-4.861 4.861-9.71 9.708-14.487 14.482l3.2 3.23 14.51-14.504-3.222-3.208M52.004 29.15c-.172-.143-.346-.266-.495-.414-4.012-4.003-8.028-8-12.02-12.022-.395-.397-.729-.411-1.257-.352-1.48.168-2.975.28-4.464.27-3.115-.02-5.958.679-8.356 2.783-1.262 1.11-2.629 2.111-3.802 3.308-1.009 1.031-.695 1.754.727 2.09.162.039.34.078.5.047.922-.171 1.926-.187 2.741-.587 1.48-.728 2.862-1.662 4.25-2.563.537-.35.95-.378 1.489-.017.478.323 1.024.63 1.58.737 1.274.246 2.571.386 3.863.528.52.056.957.234 1.004.76.026.291-.182.683-.41.892-.179.163-.556.175-.835.15-1.357-.122-2.71-.28-4.213-.441.158.28.26.605.475.82 3.932 3.924 7.878 7.834 11.842 11.768 2.262-1.249 5.93-5.058 7.38-7.757M24.092 18.075c-1.179-.35-2.32-.707-3.476-1.013-.186-.05-.49.066-.641.21-.767.722-1.5 1.479-2.245 2.223-3.102 3.097-6.204 6.194-9.304 9.292-.197.197-.463.343-.247.731 1.148 2.065 2.344 4.091 4.033 5.779 4.355 4.347 8.704 8.698 13.058 13.045.207.208.418.426.66.585.614.402 1.267.442 1.91.074.644-.366 1.013-.955.868-1.677a2.88 2.88 0 0 0-.7-1.351c-1.53-1.596-3.12-3.137-4.679-4.707-.556-.56-.526-1.222.068-1.531.482-.253.874-.073 1.24.296 1.6 1.616 3.215 3.22 4.826 4.827.374.371.73.765 1.144 1.087.74.578 1.79.479 2.413-.177.625-.656.67-1.618.084-2.36-.233-.297-.513-.558-.78-.826-1.235-1.24-2.479-2.469-3.703-3.716-.393-.4-.39-.968-.012-1.293.41-.352.845-.325 1.258.017.13.107.243.234.362.352 1.653 1.654 3.31 3.305 4.96 4.963.528.529 1.14.8 1.883.605 1.399-.366 1.83-1.979.796-3.041-1.456-1.495-2.953-2.949-4.414-4.437-.21-.213-.456-.53-.441-.786.018-.3.249-.764.483-.833.313-.093.83.007 1.066.23 1.32 1.24 2.581 2.542 3.865 3.821.583.58 1.15 1.178 1.762 1.724.623.559 1.406.61 2.11.212.652-.369 1.038-1.102.831-1.88-.117-.439-.411-.878-.737-1.205-3.74-3.77-7.5-7.52-11.264-11.265-.353-.35-.555-.714-.52-1.22.028-.41.006-.826.006-1.38-.304.205-.471.316-.636.43-1.543 1.073-3.146 2.03-4.98 2.531-1.513.414-2.995.455-4.392-.386-1.415-.851-1.812-2.197-.964-3.613.438-.729 1.017-1.4 1.637-1.987.868-.822 1.833-1.54 2.812-2.35M0 25.355c.181-.166.37-.324.544-.497l15.298-15.28c.77-.77 1.117-.77 1.89 0 1.342 1.341 2.682 2.683 4.021 4.026.724.727.737 1.023.034 1.893.27.091.51.178.753.25.363.11.735.188 1.09.316 1.41.51 2.694.675 4.143-.198 1.525-.918 3.384-.922 5.156-.991 1.39-.055 2.778-.092 4.168-.129.32-.008.56-.044.626-.448.034-.203.216-.403.374-.562a798.001 798.001 0 0 1 4.29-4.294c.59-.587 1.025-.587 1.62.007 5.174 5.167 10.347 10.336 15.518 15.507.633.633.633 1.032.004 1.662-1.294 1.3-2.593 2.593-3.89 3.889-1.086 1.084-1.17 1.088-2.296.102-.898 1.136-1.766 2.298-2.702 3.401a22.853 22.853 0 0 1-5.266 4.595.966.966 0 0 0-.383.575c-.485 2.476-2.218 3.65-4.756 3.132-.256 1.09-.8 2.007-1.805 2.588-.988.573-2.04.561-3.097.29-1.141 2.522-2.426 3.277-4.78 2.804-.065.209-.126.427-.2.638-.82 2.347-3.694 3.19-5.645 1.648-.379-.3-.712-.657-1.054-.999-4.31-4.303-8.632-8.595-12.919-12.92-1.52-1.535-2.676-3.352-3.734-5.228l-.323-.572c-.203.189-.364.35-.538.496-.417.352-.867.368-1.249-.012-1.64-1.633-3.262-3.285-4.892-4.93v-.76" fill="#FFF"/>
    </g>
</svg>
